/* XPM */
static char *result[] = {
/* columns rows colors chars-per-pixel */
"50 50 87 1 ",
"  c gray24",
". c #43403F",
"X c #4E4643",
"o c #524845",
"O c #84472C",
"+ c #864930",
"@ c #BE633F",
"# c #E75617",
"$ c #EA5514",
"% c #E75719",
"& c #E85718",
"* c #E0591F",
"= c #E95818",
"- c #DB5A23",
"; c #D55F2E",
": c #E25B21",
"> c #C76137",
", c #C76138",
"< c #CC653B",
"1 c #DA6331",
"2 c #D5673A",
"3 c #D86738",
"4 c #D26A3E",
"5 c #F46A2D",
"6 c #F56F35",
"7 c #F77035",
"8 c #836257",
"9 c #86655A",
"0 c #8C685C",
"q c #91695C",
"w c #9C6D5F",
"e c #AE684E",
"r c #BD6542",
"t c #B3664A",
"y c #B26B4F",
"u c #B96B4D",
"i c #A46C57",
"p c #AA6A53",
"a c #A16E5D",
"s c #AA6E59",
"d c #A4715F",
"f c #BC7256",
"g c #B7775E",
"h c #B97359",
"j c #956E60",
"k c #9D6E60",
"l c #9E7062",
"z c #A47464",
"x c #A97665",
"c c #A97867",
"v c #AA7768",
"b c #AD7B6A",
"n c #B77760",
"m c #B47B67",
"M c #BC7C64",
"N c #B17E6C",
"B c #C36742",
"V c #C56B45",
"C c #CC6E47",
"Z c #CC6F4A",
"A c #D16D43",
"S c #CA714E",
"D c #D5754D",
"F c #C57454",
"G c #C3785C",
"H c #D17550",
"J c #D37E5B",
"K c #EB7B4B",
"L c #FE7F48",
"P c #C27C62",
"I c #B6816F",
"U c #B8826F",
"Y c #B78270",
"T c #BB8572",
"R c #BE8875",
"E c #FF814A",
"W c #EC8357",
"Q c #EA875D",
"! c #C48168",
"~ c #CE876B",
"^ c #C18976",
"/ c #CB8C75",
"( c #C68E79",
") c #C88F7A",
"_ c #C9907B",
"` c #E18964",
"' c None",
/* pixels */
"''''''''''''''''''''''''''''''''''''''''''''''''''",
"_____)bkkkklI_)__________________________________'",
"___)))bkkkwkI)_____________)________________)__)_'",
"_)___)IzzkkzI)_(^(^^^(___)_))^^^^^)_)^^()________'",
"_____))RRbklI)_YzzzdzN_____TzzzzzN(_Rzzb))___)___'",
"_)_)_____bllI__Iwwwwwb_____Idwwwwb(_Ylkv^))___)__'",
"_)______)bklbRRIzzvzzN__)__TvzzzzI)_Tvzb)_)______'",
"___)__)_)blkzzzN^^^^^(____)(^^RR^^)))^^^))__)_)__'",
"_________bkkkkkN_________________________________'",
"R^^^R^^^Rbkkkkkv^^^RRR(R^^^^^^^^^^^^^^^^^^^^RR(R^'",
"zzzczvzzzlkkkwwkvvzzczzzzzvzzzzvzzzzvzzzzzzzzzzzz'",
"kwkkwkkwkkkkkkkwkkkkkkllwwwwkkkkkkkwkkkkkkkkklwwk'",
"zlzzy--:-szllzzzljoXXX8lll0XXXXqzlkkkkka;---rlzzz'",
"bbbNu$$$#nbNNbbNbzX   9bIIj    lbvkkkkka#$$$Cbbbb'",
"YIIIF$$$$PNYNUUIYb    9IYYl    lYvkkkkwd#$$$CYIII'",
"YIIIF$$$#MYYUNIIYv.   9IIIj    lIvkwwzzx#$$$CIIII'",
"IIIIF$$$$CZZZGIIYb+OOOiUbzwOOOOwzlkprVVV&$$$CYIIY'",
"IIIIF$$$$$$$$4IIYm%$$$SUvke$$$$ewwkr$$$$$$$$CIIII'",
"IIIIF$$$$$$$$4IIYM%$$$SYbky$$$$elllr$$$$$$$$CIIII'",
"IIIIF$$$$$$$$4IIIM%$$$SUNbf$$$$fbzkr$$$$$$$$CIYII'",
"IIIIF$$$$$$$$4IIIM%$$$FNYYG$$$$GUblr$$$$$$$$CIIII'",
"IIIIF$$$$$$$$5EEEELLLEEEEEELLLEEEEE7$$$$$$$$CIIII'",
"zzzzu$$$$$$$$5EEEEEEEEEEEEEEEEEEEEE7$$$$$$$$Bzzzz'",
"wwwwt$$$$$$$$5EEEEEEEEEEEEEEEEEEEEE7$$$$$$$$@wwkw'",
"wwwwt$$$$$$$$5EEEEEEEEEEEEEEEEEEEEE7$$$$$$$$@wwwk'",
"TTRRPDVB@@@BVKEEEEEEEEEEEEEEEEEEEEEKDDDDDDDD!^URR'",
"______bkkkwlY`EEEEEEEEEEEEEEEEEEEEEQ/_______/____'",
"_____)bkwlwlI`EEEEEEEEEEEEEEEEEEEEEQ____________)'",
"_)_)__RYUxklzJEEEEEEEEEEEEEEEEEEEEEQ______)mbbbbb'",
"_________gpppDEEEEEEEEEEEEEEEEEEEEEW~~~~__Rzklkkw'",
"_)______)*$$$5EEEEEEEEEEEEEEEEEEEEE7$$$=/_Rklwkkk'",
"___)_)TNb*$$$5EEEEEEEEEEEEEEEEEEEEE7$$$=/_(UUUIUU'",
"_)___)bla*$$$5EEEEEEEEEEEEEEEEEEEEE7$$$=))_))))))'",
"))))))blw*$$$5EEEEEEEEEEEEEEEEEEEEE7$$$=/))))))))'",
"bNbNbNzkw*$$$3PPPPg!PPPPPPPPPPPPPPPA$$$&mNNNNNbNN'",
"llklllkwa*$$$>lklldkkklkkllkwlllkllr$$$#ikkkklkll'",
"kklwlwwla*$$$>wkjkkkkkkkwklwlwlkwkkr$$$#awwwkkkkk'",
"vxvxccccx:$$$<vxccccccccxxccccllkkkr$$$#xcccvvccx'",
"IIIIIIIII2111SIIIIIIIIIIUIIIIIclkkkt;111IIIIIIIII'",
"IIIIIIIIIIIIIIIIIIIIIIIIYUIIIIblwkkkzIIIIIIIIIIII'",
"IIYbbcIIIIINNbbvbbbcbIIIIvbvbvczzzkkcbIIIIIIIIIII'",
"IIYxllcIIIIIvkklkkkkkzIUvwlllkzIIvlkzIIIIIIIIIIII'",
"IIYzlwxIIIIIvwkkkwkkkzUIvkkkkkcIYvlwzIIIIIIIIIIII'",
"IIYvzzbIIIIIbvzzzzzzzcIUbzzzzzvIYbllzxbIIIIIIIIII'",
"IYIIIIIIIIIUIIIIIIIIIIIIUIIIIIIIYvllkkkzIIUUIIIII'",
"IIIIIIIIIIIIIIIUIIIIIIIIUIIIIIIIYvllwkklIIIUIIIII'",
"bbbbbIbbbbbbbbbbIcIbcbbIbbbbbbbbbvkkkkklcbbbbbmbb'",
"lkwlkkkkkkkkkwwwkkqkkkkkkkkkkkkkkkkkkkkkkkkkkkwwk'",
"wkkkkkkkkwkkkkkkkkkkkkkkkkkwkkkwkkkkkkkkkkkkkwkkk'",
"'wwlkwkkkkkkkkkwkkwkkkkwkkkkkkkkkkkkkkkkkkkkkkkkk'"
};
