/* XPM */
static char *result[] = {
/* columns rows colors chars-per-pixel */
"50 50 196 2 ",
"   c #000000",
".  c #000609",
"X  c #02090C",
"o  c #0F0B0A",
"O  c #080605",
"+  c #120D0B",
"@  c #17110E",
"#  c #010E13",
"$  c #0E0F10",
"%  c #02131B",
"&  c #0E171B",
"*  c #081014",
"=  c #1C1412",
"-  c #171210",
";  c #261B18",
":  c #2F211D",
">  c #31231E",
",  c #001621",
"<  c #051A24",
"1  c #081F29",
"2  c #121E24",
"3  c #191F24",
"4  c #00202F",
"5  c #0E232C",
"6  c #142228",
"7  c #002232",
"8  c #0A2939",
"9  c #04283A",
"0  c #152B36",
"q  c #1E3039",
"w  c #362621",
"e  c #3C2A24",
"r  c #2B2E30",
"t  c #223139",
"y  c #2A3337",
"u  c #2B2829",
"i  c #422F28",
"p  c #402D27",
"a  c #44302A",
"s  c #4C362E",
"d  c #4F3830",
"f  c #473834",
"g  c #533B33",
"h  c #5E433A",
"j  c #53403A",
"k  c #60453B",
"l  c #66483E",
"z  c #012E44",
"x  c #013047",
"c  c #02324A",
"v  c #0D3A4F",
"b  c #013955",
"n  c #0E3E54",
"m  c #023E5B",
"M  c #013751",
"N  c #02405E",
"B  c #0F4057",
"V  c #10455E",
"C  c #36424A",
"Z  c #2E4D5A",
"A  c #31505F",
"S  c #054A6C",
"D  c #134D69",
"F  c #12526E",
"G  c #034E72",
"H  c #015177",
"J  c #02537B",
"K  c #0C577B",
"L  c #145877",
"P  c #224E65",
"I  c #424446",
"U  c #4D5154",
"Y  c #454D52",
"T  c #6B4C41",
"R  c #6D5048",
"E  c #7A554B",
"W  c #7D594D",
"Q  c #74554A",
"!  c #815C4F",
"~  c #845E51",
"^  c #8D6356",
"/  c #856255",
"(  c #906558",
")  c #956A5C",
"_  c #9B6D5F",
"`  c #9D6E60",
"'  c #966F61",
"]  c #9F7161",
"[  c #A47464",
"{  c #A97867",
"}  c #AD7C6A",
"|  c #A87768",
" . c #B27E6C",
".. c #B5816F",
"X. c #BF8975",
"o. c #B88471",
"O. c #C58D79",
"+. c #C88F7A",
"@. c #C18A76",
"#. c #C9907B",
"$. c #025A85",
"%. c #025E8A",
"&. c #0C5A80",
"*. c #155F81",
"=. c #03618F",
"-. c #0F658D",
";. c #026291",
":. c #036B9D",
">. c #1C749B",
",. c #186283",
"<. c #2D7496",
"1. c #026EA3",
"2. c #0370A6",
"3. c #0475AC",
"4. c #0B76A8",
"5. c #1C7BA6",
"6. c #1C7DAA",
"7. c #0177B1",
"8. c #0279B2",
"9. c #027DBA",
"0. c #0380BD",
"q. c #1E83B1",
"w. c #1F8BBC",
"e. c #1184BC",
"r. c #208DBE",
"t. c #2185B1",
"y. c #51859C",
"u. c #5D98B0",
"i. c #0383C2",
"p. c #0389CB",
"a. c #0B8DCB",
"s. c #0987C3",
"d. c #038ED2",
"f. c #0595DB",
"g. c #0693D7",
"h. c #1C9BD8",
"j. c #198DC5",
"k. c #2295C9",
"l. c #2392C4",
"z. c #309ACC",
"x. c #2EA1D9",
"c. c #039BE5",
"v. c #0B9FE6",
"b. c #029EE9",
"n. c #099FE8",
"m. c #03A0ED",
"M. c #0CA1E9",
"N. c #11A1E7",
"B. c #14A6EB",
"V. c #1BA6E9",
"C. c #15A9EE",
"Z. c #1DA9EA",
"A. c #03A5F4",
"S. c #09A8F4",
"D. c #1DADF1",
"F. c #17ACF1",
"G. c #18B0F7",
"H. c #26ABE5",
"J. c #23ACEB",
"K. c #2DAEE9",
"L. c #28B0EA",
"P. c #20AFF2",
"I. c #25B3F4",
"U. c #29B6F6",
"Y. c #2BBAF5",
"T. c #29B7F8",
"R. c #2ABAFA",
"E. c #34BAF7",
"W. c #35B9F6",
"Q. c #66A8C5",
"!. c #67AAC8",
"~. c #72BCDD",
"^. c #6FB6D5",
"/. c #43B8EF",
"(. c #57BAE7",
"). c #47BBF1",
"_. c #52BEF2",
"`. c #66BAE0",
"'. c #4AC1F8",
"]. c #59C1F3",
"[. c #54C4F8",
"{. c #79C7E6",
"}. c #7BCAE8",
"|. c #67C8F6",
" X c #68C9F6",
".X c #65CBF9",
"XX c #6ECEF9",
"oX c #65C6F4",
"OX c #71CDF7",
"+X c #73CEF8",
"@X c #7FD1F2",
"#X c #7CD2F9",
"$X c #82D5FA",
"%X c #84D9FD",
"&X c #83D6F5",
"*X c None",
/* pixels */
"#.#.#.#.#.O.[ ` ` ` ` ] ) ;                                           > } #.#.#.#.#.#.#.#.#.+.#.#.*X",
"#.#.#.#.#.O.[ ` ` _ ` [ ) =                                           >  .#.#.+.#.#.+.#.#.#.#.#.#.*X",
"#.#.#.#.#.O.{ ( ~ ~ ~ / / r 3 2 3 6 2 < < < < < < < < < < < < < < < < y _ } { { } o.+.#.#.#.#.#.#.*X",
"#.#.#.+.#.#.o.a o + + + t !.}.{.{.{.(.K.H.H.H.H.H.H.H.H.K.H.H.H.H.H.L.q.6 o o + o g X.#.#.+.#.#.#.*X",
"#.+.#.#.#.#.X.e         0 ^.%X$X$X$X XE.R.R.R.R.R.R.R.R.Y.R.R.U.T.T.R.w.<         s X.#.#.#.#.#.#.*X",
"#.#.#.#.} _ _ I q q q q A ~.$X#XXXXX(.l.w.l.r.r.r.r.r.l.r.l.H.U.U.U.R.k.v 8 8 8 8 C ' ` ..#.#.+.#.*X",
"#.#.#.+.g O $ u.&X@X@X@X&X$X$XXXE.U.5.% . X X . X X X X X < 5.U.U.U.U.U.U.L.I.I.Y.>.$ O h +.+.#.#.*X",
"#.+.+.#.d   X u.%X$X$X$X$X$X$XXXE.I.5.#       .           % 5.U.U.U.U.U.Y.Y.U.T.R.>.#   h O.+.#.#.*X",
"O.] ! / U Z Z !.%X$X$X$X#X.X.X[.E.I.6.*   < n n n B v <   % 5.Y.U.U.U.U.U.U.U.U.R.w.V B Y ~ ~ | O.*X",
"{ s   O y.%X&X$X$X$X$X$X+XE.I.U.U.U.5.# X D L.U.U.R.H.D   < 5.U.U.U.U.U.U.U.U.U.U.U.Y.R.,.O   T } *X",
"] a     y.%X#X$X$X$X$X$XXXE.U.U.U.U.6.% # F L.U.U.R.H.F X 1 6.U.U.U.U.U.U.U.U.U.U.U.U.R.*.    h ] *X",
"[ a     <.'.).+X$X#X$X$XOXE.U.U.U.U.k.L L 6.I.U.U.U.J.6.F *.k.U.U.U.U.U.T.U.U.U.U.I.F.G.&.    g ] *X",
"{ s     ;.b.v.].$X$X$X$XXXE.U.U.U.U.U.U.R.U.U.U.U.U.U.R.R.U.U.U.U.U.U.T.U.U.U.U.U.D.c.m.J     T } *X",
"..g     %.c.g._.$X#X#X#XXXE.T.T.U.U.U.U.U.U.U.U.U.U.U.U.U.U.U.U.U.U.U.U.U.I.U.U.U.V.f.c.H     T ..*X",
"..d     x H J z.)./././.).[.[.'.Y.U.U.U.U.U.U.U.U.U.U.U.U.U.U.U.U.U.U.I.C.C.C.C.D.s.J H 9     T ..*X",
"..d         . 1.b.c.c.c.V.+X$X+XE.U.U.U.U.U.U.U.U.U.U.U.U.U.U.U.U.U.T.D.M.c.c.c.m.=..         T ..*X",
" .g     X # % :.d.d.d.d.h.`.+X.XY.I.I.I.I.I.U.U.I.I.U.U.I.I.I.I.T.U.I.Z.g.d.p.d.g.%.% # X     T ..*X",
"..d     b %.$.S m m m N &.x.W.K.V.B.B.B.B.B.M.C.M.C.M.B.B.B.B.C.B.M.C.a.G m b S m S $.;.x     T ..*X",
"..g     ;.A.c.z         1 i.m.b.c.b.b.b.c.b.b.b.m.c.b.b.b.c.m.b.c.c.m.3.%         b c.A.J     T ..*X",
" .h - = &.d.0.M , , , , z 7.i.i.i.i.i.i.i.i.i.i.i.i.i.i.i.i.i.i.i.i.p.1.9 % , , , m 9.p.F = - E ..*X",
"..) W ~ C c c $.1.1.:.1.%.b z c x x x x x x z x x x x z x x x x x x x m ;.1.:.1.1.J c x C W W ] ..*X",
"| | { [ i   . 1.A.b.b.c.9.,                                           7 p.b.b.b.A.;..   g | [ [ { *X",
"_ _ ` ` e   . 1.b.c.B.J.j.M 4 7 7 7 7 7 7 7 7 7 7 7 7 7 7 7 7 7 7 7 1 m a.m.n.c.m.;.#   s _ _ _ ` *X",
"` _ _ ` e   . 1.m.v._.|.(.e.7.7.8.8.8.8.8.8.8.8.8.8.8.8.8.8.8.8.8.8.7.s.Z.I.Z.b.b.;.X   s _ _ _ ` *X",
" ...o...a   . 1.b.B. X%XOXV.c.b.b.b.c.M.m.c.m.m.b.b.c.m.c.m.c.m.b.b.b.M.T.U.P.n.b.;.X   g ....o...*X",
"#.#.#.#.d   . 1.b.N.|.$X XN.c.c.Z.H.B.c.f.M.M.M.M.M.M.M.c.c.M.M.v.c.c.M.I.U.P.c.m.;.X   l +.#.#.#.*X",
"#.#.#.#.d   . 1.b.N. X$X XN.c.V.]. X/.M.c.M.D.P.I.I.D.M.c.m.C.I.D.n.c.M.I.U.P.n.m.;.X   k +.#.#.#.*X",
"#.#.#.#.d   . 1.b.B. X$X XV.c.J.#X$X].M.c.C.U.U.U.U.U.B.c.M.Z.U.I.v.c.M.I.U.P.n.m.=.X   g  . . . .*X",
"+.#.#.#.s   . 1.b.B.|.$X XN.c.J.OX$X].v.c.B.U.U.U.U.I.B.c.c.D.Y.P.M.c.M.I.Y.Z.M.M.;.X   s _ _ ] [ *X",
"#.#.#.+.d   . 1.b.N.|.$X XN.c.V.OX$X].v.c.B.U.U.U.U.I.B.c.c.D.Y.I.M.c.v.I.U.I.c.m.;.X   s _ _ ` _ *X",
"#.#.#.#.d   . 2.b.B. X&X XV.c.V.+X$X].v.c.B.U.U.U.U.I.C.c.M.D.U.I.n.c.M.I.T.I.v.A.;.X   g  . . . .*X",
"#.#.#.#.~ g s D $.-.`.$X XN.c.J.+X$X].v.c.C.U.U.U.T.I.B.c.c.D.U.P.n.c.M.I.T.h.=.$.P j g ^ O.O.+.O.*X",
"#.#.#.#.@. .) u # 5 !.%X|.B.c.J.+X&X_.v.c.B.U.U.U.U.I.B.c.M.D.U.I.M.c.M.I.R.w.7 # f  .o.X.#.#.#.+.*X",
".... ... . .` :   & Q.%X|.B.c.V.+X$X].N.c.B.U.U.U.U.U.B.c.c.D.U.P.M.c.M.I.R.6.<   i }  . . . .....*X",
"] ` ] ] ` ] ) :   & Q.%X XN.c.V.+X$X].v.c.B.U.U.U.U.I.B.c.c.D.Y.I.M.c.M.I.R.q.&   e ) ] ] ] [ ] [ *X",
"` ` ` ` ` ` _ :   & Q.%X XN.c.H.+X$X].v.c.B.U.U.U.U.U.B.c.b.D.U.P.n.c.M.I.R.q.%   e ) _ ` ` ` ` ` *X",
"| | | | [ | ] > O & Q.%X XN.c.J.+X$X].v.c.B.I.U.U.T.U.B.c.b.D.U.I.n.c.n.I.R.t.<   p ` | | | | | | *X",
".. ....... .} w   & Q.%X XV.c.V.+X$X].v.c.B.U.U.U.U.T.M.c.c.D.R.I.M.c.M.I.R.t.%   i }  . . . . ...*X",
"............ .w   & Q.%X XN.c.V.+X$X].v.c.B.U.U.U.U.I.C.c.c.D.U.P.M.c.M.I.R.q.%   i }  .o. .o. ...*X",
"......} } } } w   & Q.%X_.N.c.H.OX#X].M.c.B.U.U.U.U.I.B.c.M.D.U.I.v.c.n.P.R.q.<   a  .o. .o. .o...*X",
".... .[ ` [ | w   * r.K.J.v.c.J.OX$X_.v.c.V.U.U.U.U.U.C.c.n.D.U.I.M.c.b.M.C.4.%   a }  ...........*X",
"......[ ` ] | w   % 9.b.c.b.c.Z.+X$X].N.c.V.U.U.U.U.I.B.c.b.D.U.I.m.c.b.b.A.2.%   i } ......o.....*X",
"......[ [ [ { i + 2 3.f.g.d.d.h. X#X_.v.c.B.I.I.U.I.I.B.c.c.D.U.P.g.d.d.d.f.:.2 + s } ..o. .......*X",
"...... ... . .' ( ~ q 4 4 7 7 m h.Z.V.c.c.c.M.M.M.n.M.c.c.c.M.m.a.m 1 7 7 7 t Q ( _  ... .o.....o.*X",
"............o.....[ ;         7 d.b.b.b.b.c.c.c.b.b.c.b.c.c.c.b.i.9         : ( ........o. .......*X",
" . ...} } } } ..} ] w @ - - - 0 8.p.p.p.p.p.p.p.p.p.p.p.p.p.p.d.4.0 - + + + e ( }  . . . . . . .} *X",
"` ` ` ` ` ] ` ` ] ` ( ^ ^ ^ ^ R 2 % # % % % % % # % % % % % # % 3 R ^ ^ ^ ^ ( _ _ ` ` ] ` ` _ [ ` *X",
"` ` ` ` ` ` ` ` ` ` ` ` ` ` ` E +                               = E ` ` ` ` ` _ ] _ ` ` ` _ _ _ ` *X",
"` ` ] _ ` ` ` ` ` ` ` ` ` ` _ E +                               = E _ ` ` ` ` ` ` ` ` ` ` ` ` ` ` *X",
"*X*X*X*X*X*X*X*X*X*X*X*X*X*X*X*X*X*X*X*X*X*X*X*X*X*X*X*X*X*X*X*X*X*X*X*X*X*X*X*X*X*X*X*X*X*X*X*X*X*X"
};
