/* XPM */
static char *result[] = {
/* columns rows colors chars-per-pixel */
"50 50 142 2 ",
"   c #000000",
".  c #090706",
"X  c #0B0807",
"o  c #0D0D0D",
"O  c #130902",
"+  c #120D0B",
"@  c #1A120C",
"#  c #141414",
"$  c #1C1512",
"%  c #1C1C1C",
"&  c #241A16",
"*  c #2E1E12",
"=  c #2C1F1B",
"-  c #2D211C",
";  c #362416",
":  c #33241D",
">  c #36281E",
",  c #3C291C",
"<  c #212121",
"1  c #2D2624",
"2  c #2F2826",
"3  c #2C2C2C",
"4  c #342520",
"5  c #332B27",
"6  c #3A2A23",
"7  c #322E2C",
"8  c #3E2E28",
"9  c #333332",
"0  c #3B3836",
"q  c #3A3A3A",
"w  c #402F21",
"e  c #433326",
"r  c #40302C",
"t  c #48342C",
"y  c #4B3A2A",
"u  c #463530",
"i  c #403D3B",
"p  c #553C34",
"a  c #593E37",
"s  c #564532",
"d  c #5E433A",
"f  c #564838",
"g  c #5A4C3C",
"h  c #62453C",
"j  c #66483E",
"k  c #684A3F",
"l  c #434343",
"z  c #4C4C4C",
"x  c #544E4A",
"c  c #5E5241",
"v  c #5D5149",
"b  c #525252",
"n  c #5B5B5A",
"m  c #6A4B40",
"M  c #635343",
"N  c #655E4E",
"B  c #6C5F4A",
"V  c #735246",
"C  c #715F4F",
"Z  c #675C54",
"A  c #6A5C52",
"S  c #635F5B",
"D  c #62605F",
"F  c #726354",
"G  c #796D5D",
"H  c #616161",
"J  c #6E7164",
"K  c #797365",
"L  c #737669",
"P  c #7B7769",
"I  c #7F7A69",
"U  c #757474",
"Y  c #7F7E70",
"T  c #8D6456",
"R  c #916659",
"E  c #95685B",
"W  c #9B6D5F",
"Q  c #9D6E60",
"!  c #807E6F",
"~  c #9F7062",
"^  c #A27363",
"/  c #A87766",
"(  c #A97867",
")  c #AD7A69",
"_  c #B17D6C",
"`  c #7D8172",
"'  c #848576",
"]  c #808478",
"[  c #B5816F",
"{  c #B78270",
"}  c #BA8572",
"|  c #BF8874",
" . c #C28B77",
".. c #C68E79",
"X. c #C88F7A",
"o. c #C9907B",
"O. c #849185",
"+. c #899082",
"@. c #8A9388",
"#. c #879D94",
"$. c #8B9C91",
"%. c #979797",
"&. c #9F9F92",
"*. c #A49C8E",
"=. c #AC9F93",
"-. c #A59E9A",
";. c #8BA49B",
":. c #8FA89F",
">. c #9AA397",
",. c #96A39B",
"<. c #9CA69B",
"1. c #8CABA5",
"2. c #90ADA7",
"3. c #8FB3AE",
"4. c #91B3AE",
"5. c #8FB5B1",
"6. c #96B8B3",
"7. c #A6A6A6",
"8. c #96C6C6",
"9. c #96CBCD",
"0. c #97D0D4",
"q. c #98D1D4",
"w. c #9AD7DC",
"e. c #9BDCE3",
"r. c #9DE4EE",
"t. c #9CE6F0",
"y. c #9DEAF6",
"u. c #9EEEFB",
"i. c #9EF0FF",
"p. c #B1E0E6",
"a. c #A7EBF6",
"s. c #A2EEFA",
"d. c #BDEAF2",
"f. c #A3F0FF",
"g. c #AAF1FF",
"h. c #B3F2FF",
"j. c #BAF3FE",
"k. c #D3F5FF",
"l. c #DCF6FF",
"z. c #E2F7FF",
"x. c #EAF8FF",
"c. c None",
/* pixels */
"c.o.o.o.o.o...) Q Q Q Q ^ { o.o.o.o.o.o.o.o.o.o.o.o.o.o.o.o.o.o.o.o.o.o.o.o.o.o.o.o.o.o.o.o.o.o.o.o.",
"c.o.o.o.o.o...) Q Q Q Q Q { o.o.o.o.o.o.o.o.o.X.o.o.o.o.o.o.o.o.o.o.o.o.X.o.o.o.o.o.o.o.o.o.o.o.o.o.",
"c.o.o.o.o.o...) Q Q Q Q ~ { X.o.o.X.X.o.X.o.o.o.o.o.o.o.o.o.o.o.X.X.X.X.o.o.o.o.o.X.o.o.o.o.o.o.o.o.",
"c.o.o.o.o.o.X.} { _ / Q ~ { o.X.| _ ) ) ) _ } o.o.o.o.o. ._ ) ) ) _ { ..o. ._ ) [ ..o.o.o.o.o.o.o.o.",
"c.o.o.o.o.o.o.X.o...) Q ~ { o.X.[ Q Q Q ~ ~ _ X.o.o.o.o.[ ^ W W Q Q _ ..o.} ^ Q /  .o.o.o.o.o.o.o.o.",
"c.o.o.o.o.o.o.o.o...) Q ~ { o.X._ Q Q Q W ~ _ X.o.o.o.o.[ ~ W Q Q Q )  .o.} ^ Q /  .o.o.o.o.o.o.o.o.",
"c.o.o.o.o.o.o.o.o...) Q Q / ) _ _ { { { { [ | X.o.o.X.o. .{ } { { [ | ..o...} [ { ..o.o.o.o.o.o.o.o.",
"c.o.X.o.o.o.o.o.o...) Q Q m & & = - - = = : = : - : - = : = = ; = - - - - t  .X.X.o.o.o.o.o.o.o.o.o.",
"c.X.X.X...X.X.X.X...) Q Q a                                               &  ...X.X.X.X.o.o.X.X.X.X.",
"c._ ) _ _ _ _ _ _ ) ^ Q Q a                                               $ ) _ _ ) _ _ _ _ ) _ _ _ ",
"c.~ ~ Q Q ^ Q m = = = = = 1 7 3 0 l l z l z l z l z l z z l l z z l l % # % = = = = = 6 E Q Q Q ~ W ",
"c.Q Q Q Q Q Q p           % l l z H H H H H H H H H H H H H H H H H b < < %           o E Q Q W W ~ ",
"c.) ( ( ( / / d           < l l z H H H H H H H H H H H H H H H H H n < < %           + W / / ) ( ( ",
"c.[ [ [ V = - 2 9 9 q z z b n n F I F Z H H H H H H H H H H H H H H n b b z z z l % % % = : 4 / [ { ",
"c.[ [ [ h     % l l z H H H H n >.s.t.P H H H H H H H H H H H H H H H H H H H H n 1 < %     o / { { ",
"c.[ [ { d     % l l z H H H H H Z P K Z H H H H H H H H H H H H H H H H H H H H n < < %     o ^ _ { ",
"c.p - - 1 9 9 l n n n H H H H H H H H H H H U 7.7.7.7.7.%.H H H H H H H H H H H n b b z % % % 1 - : ",
"c.:     < l l b H H H H H H H H H S Z F P ] @.<.>.>.*.=.-.H H H H H H H H H H H H H H n < < %     . ",
"c.4     % l l b H H H H H H H Z F $.9.r.j.i.i.i.f.i.y.e.6.Y F H D H H H H H H H H H H n 3 < % .   . ",
"c.4     < l l z H H H H H H N $.d.l.k.s.j.i.i.i.i.i.i.i.i.u.q.! Z H H H H H H H H H H n < < <     . ",
"c.4     < l l b H H H H D Z 1.j.x.z.h.i.i.i.i.i.i.i.i.i.i.i.i.u.4.C D H H H H H H H H n 3 < %     . ",
"c.:     % l l z H H H H D ' i.g.j.f.i.i.i.i.i.i.i.i.i.i.i.i.i.i.i.w.G D H H H H H H H n < < < .   . ",
"c.=     < l l z z z b H Z 9.i.i.f.i.i.i.i.i.i.i.i.i.i.i.i.i.i.i.i.i.e.F H H H H n q 0 9 < < <     . ",
"c.=     % l l l l l b H C r.i.i.i.i.i.i.i.i.i.i.i.i.i.i.i.i.i.i.i.i.f.1.Z H H H n < < < < < %     . ",
"c.:     < l l l l l z H F e.i.i.i.i.i.i.i.i.i.i.i.i.i.i.i.i.i.i.i.i.i.8.N S H H n < < < < < <     . ",
"c.6     o < % 3 l l z z x ;.i.i.i.i.i.i.i.i.i.i.i.i.i.i.i.i.i.i.i.i.i.` i q q l q < < < o # o     X ",
"c.6           % l l l l l c r.i.i.i.i.i.i.i.i.i.i.i.i.i.i.i.i.i.f.i.O.4 < < < < < < < %           X ",
"c.6           % l l l l l 9 N e.i.i.i.i.i.i.i.i.i.i.i.i.i.i.y.e.8.' v < < < < < < < < % .         . ",
"c.6     % 9 9 < o # o o # # < g 5.i.i.i.i.i.i.i.i.i.i.i.0.` f 8 6 7 7 < < % X X X X X X # % #     . ",
"c.6     % l l <           o < < 3 g ` ;.1.5.9.0.0.8.;.N , - < < < < < < < %           . < < % .   . ",
"c.6     < l l <           o % % 3 f l 0 - - > , , > - < < < < - w > < < < %           . % < % .   . ",
"c.6     < l l q 3 3 3 3 3 < o o o # # o X o X . o . . o . . - ,.p.q.O.g ; # # % # % # # < < %     X ",
"c.6     < l l l l l l l l <                               O +.z.h.i.i.i.e.$.> < < < < < < < %     o ",
"c.4     % l l l q l q l l <                               y a.g.f.i.i.i.i.i.g < < < < - < < % .   X ",
"c.V h h 8 % % 3 l l l l l 9 # # % 3 < < # # # # # # # # # s u.u.i.i.i.i.i.9.e < < < < < o o # s h h ",
"c.W W W p     % l l l l l 9 < < 3 l l q < < < < < < < < < : 1.y.i.i.u.r.3.s < < < < < %     o T W W ",
"c.^ ^ ^ p     % l l l l l 9 < < 3 l l q < < < < < % < < < < > g J L v y - < < < < < < % .   o E ^ ^ ",
"c._ _ _ R k m u % % % % % % < < 3 l l 9 < < < < < < < < < < < < < - < < < < o o o o o $ d m m ) _ _ ",
"c.{ { { { { { j           o < < 3 l l 0 < < < < < < < < < < < < < < < < < %           + ( { { { [ { ",
"c.{ { { _ _ _ j           o < < 3 l l 9 < < < < < < < < % < < < < < < < < %           + ( [ { [ { [ ",
"c.[ [ [ / ~ ~ T m k m m k r + o # % % # o # o o o o o o o o o o o o + o o $ h k m m m V ) { { { { [ ",
"c.[ [ [ ~ W Q / [ [ { { _ h                                               $ _ [ { { [ { _ { { _ { { ",
"c.[ [ [ ( ~ Q [ [ [ [ { _ h                                               $ ) [ _ { { [ _ } { { [ _ ",
"c.[ [ [ [ [ [ [ [ { [ _ { E j j j k M g j j j j m m j j j m h h m m h a a h Q ^ ( _ [ [ } _ } _ [ [ ",
"c.[ [ [ [ { { [ [ [ { { [ [ { { { { { [ { [ [ { [ [ { { [ { { [ { [ ) Q Q Q Q W ^ _ { [ _ } _ } [ [ ",
"c.[ [ [ [ [ [ [ [ [ [ [ [ [ [ [ [ [ [ [ [ [ [ [ [ [ [ [ [ [ [ [ [ [ ) ~ Q Q Q Q ^ _ [ _ } _ { _ [ [ ",
"c.~ ~ ^ ~ ~ ~ ~ ~ ~ ~ ~ ^ ~ ~ ^ ~ ~ ~ ~ ~ ~ ~ ~ ~ ~ ~ ~ ^ ^ ^ ^ ~ ~ ~ Q Q Q Q Q Q ^ ^ ^ ^ ^ ^ ^ ^ ^ ",
"c.~ W ~ Q Q ~ Q W ~ Q Q Q W Q Q Q Q ~ Q Q Q Q Q ~ Q W ~ Q Q W Q ~ Q Q Q Q Q Q Q Q Q Q Q Q Q W W Q Q ",
"c.~ ~ W Q Q Q Q Q Q Q Q Q Q Q Q Q Q Q Q Q Q Q Q Q Q Q Q Q Q Q Q Q Q Q Q Q Q Q Q Q Q Q Q Q Q Q Q Q Q ",
"c.c.c.c.c.c.c.c.c.c.c.c.c.c.c.c.c.c.c.c.c.c.c.c.c.c.c.c.c.c.c.c.c.c.c.c.c.c.c.c.c.c.c.c.c.c.c.c.c.c."
};
