/* XPM */
static char *result[] = {
/* columns rows colors chars-per-pixel */
"50 50 179 2 ",
"   c #020202",
".  c #090706",
"X  c #0B0807",
"o  c #0D0D0D",
"O  c #120D0B",
"+  c #150B04",
"@  c #16100D",
"#  c #19110F",
"$  c #141414",
"%  c #1C1411",
"&  c #1E1816",
"*  c #1D1D1D",
"=  c #221D1B",
"-  c #2A1D1A",
";  c #221A16",
":  c #2D201C",
">  c #39271A",
",  c #322115",
"<  c #242424",
"1  c #2F2927",
"2  c #2C2C2C",
"3  c #2C2726",
"4  c #362621",
"5  c #3B2A24",
"6  c #332A27",
"7  c #353434",
"8  c #3D3D3D",
"9  c #422F29",
"0  c #45302A",
"q  c #4A342D",
"w  c #4B3A35",
"e  c #583E36",
"r  c #513F39",
"t  c #48413F",
"y  c #53443F",
"u  c #5C4138",
"i  c #66483F",
"p  c #434343",
"a  c #4B4B4B",
"s  c #534B48",
"d  c #5C524E",
"f  c #5D5241",
"g  c #545454",
"h  c #5C5C5C",
"j  c #6C4D42",
"k  c #695846",
"l  c #675A4E",
"z  c #725046",
"x  c #7D594D",
"c  c #77564C",
"v  c #746C5F",
"b  c #616161",
"n  c #6B6B6B",
"m  c #706765",
"M  c #746E6C",
"N  c #7C7D6F",
"B  c #7C7C7C",
"V  c #717171",
"C  c #835D52",
"Z  c #885F53",
"A  c #8B6255",
"S  c #8E6558",
"D  c #836E5F",
"F  c #926659",
"G  c #95695C",
"H  c #9B6D5F",
"J  c #9D6E60",
"K  c #87776C",
"L  c #88786D",
"P  c #857366",
"I  c #9F7062",
"U  c #827D79",
"Y  c #A27363",
"T  c #A87767",
"R  c #A97867",
"E  c #AD7B69",
"W  c #B17D6C",
"Q  c #828A7F",
"!  c #B5816F",
"~  c #B8836F",
"^  c #B78270",
"/  c #B98471",
"(  c #BF8874",
")  c #A2917F",
"_  c #C18A76",
"`  c #C68E79",
"'  c #C88F7A",
"]  c #C9907B",
"[  c #8C8784",
"{  c #8E8885",
"}  c #8E8E8E",
"|  c #838883",
" . c #9E8E81",
".. c #918C88",
"X. c #899082",
"o. c #839388",
"O. c #9C9B8B",
"+. c #99968B",
"@. c #959494",
"#. c #999795",
"$. c #9B9B9B",
"%. c #A49483",
"&. c #A29C8E",
"*. c #AB9D8F",
"=. c #AE9F94",
"-. c #A29E91",
";. c #90A397",
":. c #9DA395",
">. c #98A89C",
",. c #98A59C",
"<. c #B2A18E",
"1. c #ADA193",
"2. c #A7AC9D",
"3. c #B3A797",
"4. c #B1A59C",
"5. c #BAAB9C",
"6. c #B5A999",
"7. c #96AFA6",
"8. c #99AAA0",
"9. c #9BB4AB",
"0. c #98B6B0",
"q. c #97B8B2",
"w. c #9ABCB7",
"e. c #9ABEBA",
"r. c #95B7B2",
"t. c #A4A4A4",
"y. c #A9A9A9",
"u. c #A8AEA1",
"i. c #B4AAA3",
"p. c #B7B1AD",
"a. c #BCB2AB",
"s. c #B5B4B4",
"d. c #BAB6B4",
"f. c #BDBDBD",
"g. c #BBB9B7",
"h. c #C3B2A4",
"j. c #CCBCAF",
"k. c #C5B7AC",
"l. c #CCC1B8",
"z. c #D6C8BF",
"x. c #D5C7BC",
"c. c #97C6C4",
"v. c #98C8C7",
"b. c #99CACB",
"n. c #9ACFD1",
"m. c #99D2D5",
"M. c #9AD8DD",
"N. c #9BDCE3",
"B. c #9CDFE8",
"V. c #9EE4EE",
"C. c #9CE6F0",
"Z. c #9DEAF6",
"A. c #9EEEFB",
"S. c #9EF0FF",
"D. c #B1E0E6",
"F. c #A7EBF6",
"G. c #A2EEFA",
"H. c #BDEAF2",
"J. c #A3F0FF",
"K. c #AAF1FF",
"L. c #B3F2FF",
"P. c #BAF3FE",
"I. c #C4C4C4",
"U. c #CDCDCD",
"Y. c #CBC8C6",
"T. c #DFD4CD",
"R. c #D2D2D2",
"E. c #DCDCDC",
"W. c #E0D7D0",
"Q. c #D3F5FF",
"!. c #DCF6FF",
"~. c #E3E3E3",
"^. c #EAE7E5",
"/. c #EDEDED",
"(. c #E2F7FF",
"). c #EAF8FF",
"_. c #F2F2F2",
"`. c #FCFCFC",
"'. c None",
/* pixels */
"'.] ] ] ] ] ` E J J J J I / ] ] ] ] ] ] ' ' ] ] ] ] ] ] ] ] ] ] ] ] ] ] ] ] ] ] ] ] ] ] ] ] ] ] ] ] ",
"'.] ] ] ] ] ` E J J J J Y W ] ] ] ] ] ] ' ' ] ] ] ] ] ] ] ] ] ] ] ] ] ] ] ] ' ] ] ] ] ] ] ] ] ] ] ] ",
"'.] ] ] ] ] ` E J J J J I / <.] ' ' ] ] ' ' ] ] ] ] ] ] ' ' ] ] ] ' ] ] ] ' ] ' ] ' ] ] ] ] ] ] ] ] ",
"'.] ] ] ] ] ' / / W T J I W ] ] ( E E W E E _ ] ] ] ] ] _ W E W E E / ` ] _ W W ! ` ] ] ] ] ] ] ] ] ",
"'.] ] ] ] ] ] ' ' ` E J I ^ ' ` ~ J J J J J W ] ] ] ] ] ~ I J J J J E _ ] / Y J T _ ] ] ] ] ] ] ] ] ",
"'.] ] ] ] ] ] ] ' ' E J I ^ ' ' ~ J J J J J W ] ] ] ] ] ~ I J J J J E ` ] / Y J T _ ] ] ] ] ] ] ] ] ",
"'.] ] ] ] ] ] ] ' ' E J J I I Y Y T T T T T E ~ / ~ ~ ~ W T T T T T E / / / / ! ~ ` ] ] ] ] ] ] ] ] ",
"'.] ] ' ] ] ] ] ' ` E J F 0 .   . . .   .   .     .   .   .   . .     .   q E ` ' ] ] ] ] ] ] ] ] ] ",
"'.' ' ' ' ' ' ' ' ` E J F 9                                               0 E ] ' ' ] ` ] ` ' ' ' ' ",
"'.W E W W W E J S S C x c s 7 7 2 < < < < < < < < 3 < 2 < < < < < < 2 2 7 t Z S S S S F E W W W W W ",
"'.I I J J I F 9 O o O o = { ~.~.I.y.y.y.y.y.y.y.y.y.y.y.y.y.y.y.y.t.s.U.R.} 1 O O O O - A H I J I J ",
"'.J J J J J F 4         $ } `.`.~.f.f.f.f.f.f.f.f.k.f.f.f.f.f.f.f.f.R./._.t.*         % Z J I H J H ",
"'.E T T A x x s p w 7 2 8 8././.E.f.f.f.f.f.f.f.f.f.f.f.f.f.f.f.f.f.U.E.~.t.a 2 7 8 8 p c x C Y T R ",
"'.! ! E 9 O = $.~.E.f.y.y.g.I.I.*.+.%.i.f.f.f.f.f.f.f.f.f.f.f.f.f.f.f.I.I.f.y.t.y.U.R.p.2 @ - I ! ! ",
"'.! ! E >   $ y.`.`.R.I.f.f.f.s.u.G.V.O.f.f.f.f.f.I.f.f.f.f.f.f.f.f.f.f.f.f.f.f.Y./._.I.*   $ I ~ W ",
"'.x C x d a g g.~./.U.f.f.f.f.f.4.&.&.i.f.f.s.$.t.t.8.t.y.f.f.f.f.f.f.f.f.f.f.f.I.E.~.I.h a s c C x ",
"'.% @ & t.E.E.U.I.I.I.f.f.f.f.f.f.f.f.f.f.f.$.n n n n n { g.f.f.f.f.f.f.f.f.f.f.f.I.I.I.U.R.g.2 O % ",
"'.    o f.`.`.R.f.f.f.f.f.f.f.f.f.d.4.*.-.:.@.o.Q N v l B d.f.f.f.f.f.f.f.f.f.f.f.f.f.I./._.R.*   . ",
"'.    o s.`.`.R.f.f.f.f.f.f.f.p.%.8.v.C.P.A.S.S.S.S.Z.N.r.O.1.f.f.f.f.f.f.f.f.f.f.f.f.I.~._.U.*   . ",
"'..   X s.`.`.R.f.f.f.f.f.f.1.>.H.!.Q.J.P.S.S.S.S.S.S.S.S.S.m.O.4.f.f.f.f.f.f.f.f.f.f.I./._.U.<   . ",
"'..   o s.`.`.R.f.f.f.f.f.i.r.P.).(.L.S.S.S.S.S.S.S.S.S.S.S.S.A.q.%.f.f.f.f.f.f.f.f.f.I.~._.U.*   . ",
"'.    o s.`.`.~.R.R.I.f.f.O.A.K.P.J.S.S.S.S.S.S.S.S.S.S.S.S.S.S.S.M.) d.f.f.f.f.I.U.U.R././.R.*   . ",
"'.    X s.`.`.`._._.R.f.4.b.S.S.S.S.S.S.S.S.S.S.S.S.S.S.S.S.S.S.S.S.N. .f.f.f.f.I.~././././.R.*   . ",
"'.    o s.`.`.`.`.`.R.f.%.C.S.S.S.S.S.S.S.S.S.S.S.S.S.S.S.S.S.S.S.S.S.7.p.f.f.f.I.^./././._.R.*   . ",
"'.    X B y.s.~.`.`.~.R.5.N.S.S.S.S.S.S.S.S.S.S.S.S.S.S.S.S.S.S.S.S.S.c.h.U.U.U.R././.~.y.8.} $     ",
"'..     $ $ < s.`.`.`.`.^.9.A.A.S.S.S.S.S.S.S.S.S.S.S.S.S.S.S.S.S.A.A.:.~./.^././././.U.7 $ $     o ",
"'..         $ t._.`.`.`.`.h.B.A.S.S.S.S.S.S.S.S.S.S.S.S.S.S.S.S.J.A.-.Y././._._./././.I.<         . ",
"'.      p h b } t.t.t.8.t.Y.=.B.S.S.S.S.S.S.S.S.S.S.S.S.S.S.Z.M.b.O.l.^./.R.t.@.$.$.#.} b g a o   . ",
"'.    o t.^.E.h * $ $ $ < @.^.i.w.A.S.S.S.S.S.S.S.S.S.S.m.:.5.j.Y.W._./._.t.2 $ $ $ $ 7 I.E.I.*   . ",
"'.    o s.`./.h o   . . $ [ /./.T.5.2.9.w.e.n.m.m.b.7.%.h.^./././././././.$.<   . . . 2 R._.U.*   . ",
"'..   o s.`._.@.h h h h b B #.#.$.t.2.@...{ L D P L { @.$.@.@.+. . .@.@.$.| b g g g g V E._.R.*     ",
"'.    o s.`.`._._._._._.~.V $ o o o o o o o o o o o o o o o , ,.D.m.o.f > g I././.~.~././._.U.=   X ",
"'.X   o s.`.`.`.`.`.`.`./.n X                 .       .   + X.(.L.S.S.S.N.;.k._._./._./././.U.<   O ",
"'.5 5 0 { y.s.~.`.`.`.`._.@.a a a g g a a a a a a a a a a k F.K.S.S.S.S.A.A.4._._./._.~.y.t.@.w 5 5 ",
"'.J J J 6 o * y.`.`.`.`.`._././._._._._././.^.^./././././.<.G.S.S.S.S.S.A.n.j././._./.I.< X & A J J ",
"'.J J F -   $ y.`.`.`.`.`._./._.`.`.`._./._._././././././.z.9.A.S.S.A.V.e.6./././././.I.<   O Z H H ",
"'.Y Y J e 5 0 U t.y.t.t.y.R./._._.`.`.`._./././././._././._.Y.5.2.2.6.h.T.R.y.$.$.$.$.[ w 5 q G Y T ",
"'.W W W E W Y 9 X X     $ } /./.`.`.`.`././._././././././././././././._._.,.*   X     ; G E E W W W ",
"'.! ^ ~ / ^ E 5         $ } _._._.`.`.`._._._._._./._._._./._./._._._._._.-.<         % H ! / ^ / W ",
"'.^ ! ! W W T j q q q q w m } } @.$.$.@.} } } } } @.} } @.} } @.} } } } @.M r q q q q u T ^ ! ^ / W ",
"'.! ! ! T I I ! ! ! ! ! T 0 .                                             5 J ^ ^ ! ! ^ W ^ W / ^ ^ ",
"'.! ^ ! I J J E ^ ! ! ^ T 0                                               5 J ^ ! ! ^ ^ ^ ^ W ^ ^ W ",
"'.! ! ! T I J R ! ! ^ ^ E z 0 0 5 q 0 5 9 9 q q q q 0 0 9 9 0 q q q q 9 9 j Y W W ^ ^ ^ W / / W ^ ^ ",
"'.^ ! ! ! ! ! ! ! ! W ^ ~ W W W E ! ! ! W W W W ! W W W W W E E ! ~ E J H J Y Y T W ^ W / / W / ^ ^ ",
"'.! ! ! ^ ^ ^ ! ! ! ^ ^ W ~ ^ / ^ ^ ^ ! ^ ^ ! ^ ! ! ^ ^ ! ! ^ ! ^ ! E J J J J J Y W ^ W W / W / ! W ",
"'.! ! ! ! ! ! ! ! ! ! ^ ! ! ! W ! ! ! ! ! ! ! ^ ! ! ! ! ! ! ! ! ! ! E I J J J J Y E ^ ^ / W ^ W ! ! ",
"'.I I Y I I I I I I I Y I I Y Y I I I I I I I I Y I I Y Y Y Y Y Y Y J J J J J J I Y I Y I Y Y Y Y Y ",
"'.J J J J J I J J J J J J J J J J I I J J I J J J J J H J J H J J J J J J J J J J J J J J J J J J J ",
"'.J J J J J J J J J J J J J J J J J J J J J J J J J J J J J J J J J J J J J J J J J J J J J J J J J ",
"'.'.'.'.'.'.'.'.'.'.'.'.'.'.'.'.'.'.'.'.'.'.'.'.'.'.'.'.'.'.'.'.'.'.'.'.'.'.'.'.'.'.'.'.'.'.'.'.'.'."
};
