/* XPM */
static char *result[] = {
/* columns rows colors chars-per-pixel */
"50 50 149 2 ",
"   c #9C6D5F",
".  c #9C6D60",
"X  c #9C6E60",
"o  c #9D6E60",
"O  c #9D6F60",
"+  c #9D6E61",
"@  c #9E6E60",
"#  c #9E6F60",
"$  c #9E6E61",
"%  c #9E6F61",
"&  c #9F6F61",
"*  c #9E7061",
"=  c #9F7061",
"-  c #9F7062",
";  c #A07061",
":  c #A07062",
">  c #A07162",
",  c #A17162",
"<  c #A07262",
"1  c #A27263",
"2  c #A37263",
"3  c #A37363",
"4  c #A47363",
"5  c #A27264",
"6  c #A37264",
"7  c #A37364",
"8  c #A47364",
"9  c #A47464",
"0  c #A47564",
"q  c #A57564",
"w  c #A47465",
"e  c #A57565",
"r  c #A77565",
"t  c #A67665",
"y  c #A77665",
"u  c #A67765",
"i  c #A57566",
"p  c #A67566",
"a  c #A67567",
"s  c #A77567",
"d  c #A67667",
"f  c #A77667",
"g  c #A87766",
"h  c #A97766",
"j  c #A87667",
"k  c #A87767",
"l  c #A97767",
"z  c #A97866",
"x  c #A97867",
"c  c #AA7866",
"v  c #AA7867",
"b  c #A77668",
"n  c #A97768",
"m  c #AA7968",
"M  c #AB7968",
"N  c #AB7969",
"B  c #AB7A68",
"V  c #AB7A69",
"C  c #AC7968",
"Z  c #AC7869",
"A  c #AD7969",
"S  c #AC7A68",
"D  c #AC7A69",
"F  c #AD7B69",
"G  c #AC7A6A",
"H  c #AD7A6A",
"J  c #AD7B6A",
"K  c #AD7B6B",
"L  c #AE7B6B",
"P  c #AE7C6B",
"I  c #AF7C6B",
"U  c #AF7D6B",
"Y  c #AF7C6C",
"T  c #AE7D6C",
"R  c #AF7D6C",
"E  c #AF7E6C",
"W  c #B07D6B",
"Q  c #B17D6C",
"!  c #B07E6C",
"~  c #B07E6D",
"^  c #B17E6D",
"/  c #B17F6D",
"(  c #B27E6C",
")  c #B37E6D",
"_  c #B37F6D",
"`  c #B27F6E",
"'  c #B47F6D",
"]  c #B47F6E",
"[  c #B2806E",
"{  c #B3806E",
"}  c #B3816E",
"|  c #B4806E",
" . c #B5806E",
".. c #B5806F",
"X. c #B4816F",
"o. c #B5816F",
"O. c #B6816F",
"+. c #B7816F",
"@. c #B6826E",
"#. c #B6826F",
"$. c #B8836F",
"%. c #B98370",
"&. c #B98471",
"*. c #BA8470",
"=. c #BA8471",
"-. c #BB8571",
";. c #BB8572",
":. c #BB8672",
">. c #BC8672",
",. c #BC8673",
"<. c #BD8773",
"1. c #BE8774",
"2. c #BD8874",
"3. c #BE8874",
"4. c #BE8875",
"5. c #BF8975",
"6. c #C08875",
"7. c #C18975",
"8. c #C28B75",
"9. c #C08976",
"0. c #C28A76",
"q. c #C28B77",
"w. c #C38B77",
"e. c #C48B77",
"r. c #C38C78",
"t. c #C48C78",
"y. c #C58C78",
"u. c #C48D78",
"i. c #C58D78",
"p. c #C58D79",
"a. c #C68D78",
"s. c #C68D79",
"d. c #C58E79",
"f. c #C68E79",
"g. c #C78E79",
"h. c #C78E7A",
"j. c #C78F7A",
"k. c #C88F7A",
"l. c #C98F7A",
"z. c #C88F7B",
"x. c #C98F7B",
"c. c #C9907A",
"v. c #C8907B",
"b. c #C9907B",
"n. c #C9917B",
"m. c #CA907B",
"M. c #CA917B",
"N. c #CA917C",
"B. c #CB917C",
/* pixels */
"b.b.b.b.M.f.m # o o o - [ h.b.b.b.b.b.b.b.b.b.b.b.b.b.b.b.b.b.b.b.b.b.b.b.b.b.b.b.b.b.b.b.b.b.b.b.b.",
"b.b.b.b.M.f.m @ X o o - [ h.b.b.m.m.m.m.m.b.b.b.b.b.b.b.b.m.m.m.m.m.b.b.b.b.b.m.b.b.b.b.b.b.b.b.b.b.",
"b.b.b.b.b.g.J 1 , & o - [ h.b.j.i.y.i.y.y.s.b.b.b.b.b.b.f.y.y.i.y.i.h.b.b.h.i.i.f.b.b.b.b.b.b.b.b.b.",
"b.b.b.b.b.z.9.,.&.v @ - [ j.b.1.S z v v v W s.b.b.b.b.f._ v v v c C ;.z.k.*.M v | f.b.b.b.b.b.b.b.b.",
"b.b.b.b.b.b.b.b.p.Y % = [ k.b.=., X X X o y u.m.b.b.m.y.v o X X X : @.k.j.[ = @ V d.N.b.b.b.b.b.b.b.",
"b.b.b.b.b.b.b.M.f.Y % % / i.s.%.2 & = = ; g t.b.b.b.b.i.M ; = = & 1 $.k.j.} , : J f.M.b.b.b.b.b.b.b.",
"b.b.b.b.b.b.b.M.f.Y % o 7 x M ! &.;.;.;.;.<.j.b.b.b.b.k.4.;.;.;.;.>.e.b.c.8.:.;.5.k.b.b.b.b.b.b.b.b.",
"M.M.M.M.M.M.M.M.f.Y % o o @ & D p.b.l.l.l.l.b.M.M.M.M.b.b.x.l.l.l.k.b.M.M.b.l.l.b.b.M.M.M.M.M.M.M.M.",
"f.f.f.f.f.f.f.f.r.K % o o o # M q.h.f.f.f.f.f.f.f.f.f.f.f.f.f.f.f.f.f.f.f.f.f.f.f.f.f.f.f.f.f.f.f.f.",
"Y Y Y Y Y Y Y Y K w @ o o o o 3 K Y Y Y Y Y Y Y Y Y Y Y Y Y Y Y Y Y Y Y Y Y Y Y Y Y Y Y Y Y Y Y Y Y ",
"% % % % % % % % % o o o o o o o % % % % % % % % % % % % % % % % % % % % % % % % % % % % % % % % % % ",
"% % % % % % % % % % % % % % % % % % % % % % % % % % % % % % % % % # o o o o o o o O % % % % % % % % ",
"x x x x x x x x x x x x x x x x x x x x x x x x x x x x x x x x x k 1 o o o o o < g x x x x x x x x ",
" . . . . . . . . . . . . . . . . . . . . . . . . . . . . . . . . ._ s % o o o o e _  . . . . . . . .",
"O.O.O.O.O.O.O.O.O.O.O.O.O.O.O.O.O.O.O.o.o.O.O.O.O.o.o.o.o.o.o.o.O.] d % o o o % t | O.O.O.O.O.O.O.O.",
"O.O.O.O.O.O.O.O.O.O.O.O.O.O.O.O.O.O.{ H G I  .O.o.H G G G G G G G N 6 o O < e t B | O.O.O.O.O.O.O.O.",
"O.O.O.O.O.O.O.O.O.O.O.O.O.O.O.O.O.O.W > & 7 _ +. .> % - - - - - - & % o % g _ |  .O.O.O.O.O.O.O.O.O.",
"O.O.O.O.O.O.O.O.O.O.O.O.O.O.O.O.O.O.W = o , _ +.| % X o o o o o o o o o % x  .#.O.O.O.O.O.O.O.O.O.O.",
"O.O.O.O.O.O.O.O.O.O.O.O.O.O.O.O.O.O.Q 9 3 p ] O...9 3 3 3 3 3 3 3 2 ; o @ p I W ^ o.O.O.O.O.O.O.O.O.",
"O.O.O.O.O.O.O.O.O.O.O.O.O.O.O.O.O.O.O. .|  .O.O.O. .| | | | | |  .) a % o % % = u | O.O.O.O.O.O.O.O.",
"O.O.O.O.O.O.O.O.O.O.O.O.O.O.O.O.O.O.O.O.O.O.O.O.O.O.O.O.O.O.O.O.O.| f % o o o o e ' O.O.O.O.O.O.O.O.",
"E E E E E E E E E E E E E E E E E E E E E E E E E E E E E E E E E T i % o o o o 7 P ! E E E E E E E ",
": : : : : : : : : : : : : : : : : : : : : : : : : : : : : : : : : - % o o o o o % : : : : : : : : : ",
"          . o o o o o o o                                                                           ",
"= = = = = : $ o o o o o & - = = = = = = = = = = = = = = = = = = = = = = = = = = = = = = = = = = = = ",
"h.h.h.h.h.t.x $ o o o = / u.h.h.h.h.h.h.h.h.h.h.h.h.h.h.h.h.h.h.h.h.h.h.h.h.h.h.h.h.h.h.h.h.h.h.h.h.",
"N.N.N.N.B.j.M @ X o o - { k.B.B.B.N.N.N.N.N.B.B.N.N.N.N.N.N.N.N.N.N.N.N.N.N.N.N.N.N.N.N.N.B.B.B.B.B.",
"b.b.b.b.b.g.J 1 , & o * ~ w.i.i.y.y.s.b.b.k.i.y.i.b.b.b.b.b.b.b.b.b.b.b.b.b.b.b.b.b.b.k.i.y.i.i.i.i.",
"b.b.b.b.b.z.9.,.&.v # o 4 l v v v v ( j.b.0.F h C h.N.b.b.b.b.b.b.b.b.b.b.b.b.b.b.b.c.8.S z v v v v ",
"b.b.b.b.b.b.b.m.f.Y % o o o X X X o g f.m.6.1   ; h.N.b.b.b.b.b.b.b.b.b.b.b.b.b.b.b.b.2.:   X X X X ",
"b.b.b.b.b.b.j.j.t.P % o % = = = = ; x f.m.7.8 % 1 f.M.b.b.b.b.b.b.b.b.b.b.b.b.b.b.b.b.3.1 & = = = = ",
"b.b.b.b.b.j.X.B x 3 o % Z =.;.;.;.;.1.z.b.a.>.-.>.v.b.b.b.b.b.b.b.b.b.b.b.b.b.b.b.b.b.i.>.-.;.;.;.;.",
"M.M.M.M.M.h.B * # O o = ` f.l.l.l.l.v.n.M.b.l.l.b.M.M.M.M.M.M.M.M.M.M.M.M.M.M.M.M.M.M.b.b.l.l.l.l.l.",
"f.f.f.f.g.t.x # o o o * / u.f.f.f.f.f.f.f.f.f.f.f.f.f.f.f.f.f.f.f.f.f.f.f.f.f.f.f.f.f.f.f.f.f.f.f.f.",
"Y Y Y Y Y P 3 O o o o # r L Y Y Y Y Y Y Y Y Y Y Y Y Y Y Y Y Y Y Y Y Y Y Y Y Y Y Y Y Y Y Y Y Y Y Y Y ",
"% % % % % % o o o o o o @ % % % % % % % % % % % % % % % % % % % % % % % % % % % % % % % % % % % % % ",
"% % % % % % % % % % % % % % % % % % % % % % % % % % % % % % % o o o o o o o % % % % % % % % % % % % ",
"x x x x x x x x x x x x x x x x x x x x x x x x x x x x x x k < o o o o + 5 l x x x x x x x x x x x ",
" . . . . . . . . . . . . . . . . . . . . . . . . . . . . .o.] 0 O o o o % l '  . . . . . . . . . . .",
"O.O.O.O.o.o.O.O.O.O.O.O.O.o.o.o.o.o.o.o.o.O.O.O.O.o.o.o.o.O.| e % o o o % x  .O.O.O.O.O.O.O.O.O.O.O.",
"O.O. .U G H _ O.O.O.O.o.^ G G G G G G G G I  .O.o.H G G G G G j t q : o % x  .O.O.O.O.O.O.O.O.O.O.O.",
"O.O.] e = : L ..O.O.O. .m : & - - - - - - 7 _ +. .> % - - & : G ] _ p @ % x  .O.O.O.O.O.O.O.O.O.O.O.",
"O.O.] 9 o % K ..O.O.O. .x # o o o o o o o , _ +.| % X o o o % K O. .b @ % x  .O.O.O.O.O.O.O.O.O.O.O.",
"O.O.| n 3 9 R o.O.O.O.o.A 4 3 3 3 3 3 3 3 p ] O...9 3 3 3 3 9 R O.| f $ @ p I W ^ o.O.O.O.O.O.O.O.O.",
"O.O.O. .|  .O.O.O.O.O.O. . .| | | | | | |  .O.O.O. .| | | |  .O.+.] f % o % % = u | O.O.O.O.O.O.O.O.",
"O.O.O.O.O.O.O.O.O.O.O.O.O.O.O.O.O.O.O.O.O.O.O.O.O.O.O.O.O.O.O.O.O.| f % o o o o e ' O.O.O.O.O.O.O.O.",
"E E E E E E E E E E E E E E E E E E E E E E E E E E E E E E E E E T i % o o o o 7 P ! E E E E E E E ",
": : : : : : : : : : : : : : : : : : : : : : : : : : : : : : : : : - % o o o o o % : : : : : : : : : ",
"o o o o o o o o o o o o o o o o o o o o o o o o o o o o o o o o o o o o o o o o o o o o o o o o o o ",
"o o o o o o o o o o o o o o o o o o o o o o o o o o o o o o o o o o o o o o o o o o o o o o o o o o "
};
