/* XPM */
static char *result[] = {
/* columns rows colors chars-per-pixel */
"25 25 2 1 ",
"  c gray10",
". c None",
/* pixels */
".........................",
".........................",
".........................",
".........................",
".........................",
".........................",
"...........   ...........",
"..........    ...........",
"............  ...........",
"............  ...........",
"............  ...........",
"............  ...........",
"............  ...........",
"..........     ..........",
"...........    ..........",
".........................",
".........................",
".........................",
".........................",
".........................",
".........................",
".........................",
".........................",
".........................",
"........................."
};
