/* XPM */
static char *result[] = {
/* columns rows colors chars-per-pixel */
"50 50 95 2 ",
"   c #010101",
".  c #080605",
"X  c #0E0D0D",
"o  c #100F0F",
"O  c #18110F",
"+  c #141414",
"@  c #1B1513",
"#  c #1D1D1D",
"$  c #211714",
"%  c #241A16",
"&  c #251D1B",
"*  c #2A1E1A",
"=  c #2E211C",
"-  c #33251F",
";  c #222121",
":  c #2D2421",
">  c #2A2A2A",
",  c #342622",
"<  c #352926",
"1  c #3A2A24",
"2  c #3D2D28",
"3  c #3E322E",
"4  c #422F29",
"5  c #41302A",
"6  c #4A342D",
"7  c #4E382F",
"8  c #463530",
"9  c #4B3631",
"0  c #4E3932",
"q  c #543C34",
"w  c #513E39",
"e  c #5B4037",
"r  c #56423B",
"t  c #5B4239",
"y  c #61453B",
"u  c #65493F",
"i  c #684A3F",
"p  c #4C4C4C",
"a  c #5F4F4B",
"s  c #505050",
"d  c #654C43",
"f  c #6C4D42",
"g  c #60504B",
"h  c #725246",
"j  c #745349",
"k  c #645E5C",
"l  c #656565",
"z  c #6C6461",
"x  c #6F6866",
"c  c #6E6E6E",
"v  c #716A67",
"b  c #746D6B",
"n  c #75706F",
"m  c #737272",
"M  c #7B7574",
"N  c #7B7B7B",
"B  c #865F52",
"V  c #8B6255",
"C  c #916659",
"Z  c #94685B",
"A  c #9B6D5F",
"S  c #9D6E60",
"D  c #9F7161",
"F  c #A37364",
"G  c #A87766",
"H  c #A77867",
"J  c #A97867",
"K  c #AB7A69",
"L  c #B27F6D",
"P  c #B6816F",
"I  c #B78370",
"U  c #BA8572",
"Y  c #BF8875",
"T  c #C38B77",
"R  c #C48C78",
"E  c #C88F7A",
"W  c #C9907B",
"Q  c #858585",
"!  c #8C8C8C",
"~  c #949292",
"^  c #9D9D9D",
"/  c #A4A4A4",
"(  c #AAAAAA",
")  c #B1B0AF",
"_  c #B1B1B1",
"`  c #BCBCBC",
"'  c #C3C3C3",
"]  c #CBCBCB",
"[  c #D2D2D2",
"{  c #DDDDDD",
"}  c #E5E5E5",
"|  c #EEEEEE",
" . c #F3F3F3",
".. c #FEFEFE",
"X. c None",
/* pixels */
"W W W W W R G S S S S F U E U q .         h W W W W W y .         t U E E E E E W W W E W W W W W X.",
"W W W E W R G S S S S F U E U q           h W W W W W y .       . t U E W W E E W W W W W W W E W X.",
"W W W W W R J F F S S F U W I w     o # # j P L P P P d ; ; o   . q U W E R R R W W W W W W W W W X.",
"W E W W W R T Y U F S F U W I 0   X c [ ] x * * & * * M ' ] l X . q U E Y J G L E E W W W W W W W X.",
"W W W W W W W W R J S F Y W I 7   X ! ....m           Q  ...Q X . 7 L E L S S G E E W W W W W W W X.",
"W W W W W W W W R J S S I R L 7   X ! ....c           Q  ...Q X . q U E U F F K E E W W W W W W W X.",
"W W W W W W W W R J S S F G S 6   X ! ....c           Q  ...Q o . q U E E T T T E W E W W W W W W X.",
"W W W W W W W W R J S S S S C 9   o ~ ....c           Q  ...Q o . q U E E E E E W W W W W W W W W X.",
"R R R R R R R R Y J S S S S Z q @ & Q { { c # # # # # N { { D ; O i L R R R R R R T R R T T T T R X.",
"J J J J G G J J G S S S S S S B j j g s p N ^ ^ ^ ^ ^ m p p a k j C G K G G G G K K J K J J J J J X.",
"S S D S S S S S S S S S S S S S A Z 8     Q | } } } | c .   0 Z S S S S S S S S S S S S S S S S S X.",
"S F S F F S F S S F S S C C B B V B w # ; N ] ' ' ' ] c > ; r B V V B B C S S S S S S F S S F F F X.",
"K K L K K K L K K K K S y 1 1 1 1 4 v / ^ c p p p p p m ^ / l 3 2 , , , y Z S F K L L K L K L L K X.",
"I I U L L L Y L L L L S 2 .   .   X Q  .| l           M }  .N X       . 4 C S F L L L L L Y L L P X.",
"I I L U U L L L L K J S 8 + + + + # ~  .| m o + + + + Q }  .Q # + + + + 9 B Z S L L L Y L L L U P X.",
"L I I L L U T L L h 9 t v ! Q Q Q ! '  .| _ Q Q ! Q Q ` }  .` ! Q Q ! ! z 9 9 f K Y L L L T L L P X.",
"P P P P P P P P S ,   ; /  . . . . .| | |  . . . . . . .| |  . . . . . .! +   , G P P P U L U U I X.",
"P P P P P P L K A 2 X > /  .| | | | | | | | | | | | |  .| | | | | | | | ! # X 2 D K L P L I L L I X.",
"P P P P P G f q r n Q ~ '  .| | | |  . ... . ... ... . . ... .| | | | | ' ! Q b r q f K I L L I L X.",
"P P P P P D *   ; (  . .| | | | | | ........................ .| | | | |  . . .( +   * G I L I I I X.",
"P P P P P D =   ; ( | | | | | | | |  .........................| | | | | |  .| ( @   = G I I I L I X.",
"G H G G H C *   ; / |  . . ... ... ........................... . ..... . . .} / @   * Z H G H F G X.",
"A S S A A V *   ; / |  ...................................................| | ( #   & C S S S S S X.",
"A A A A A V *   # / | | ................................................ .| | / +   * C Z S S A A X.",
"P P G y 6 r m Q ~ [ |  ...................................................| } [ ~ Q m w 6 y L I P X.",
"W W P %   # `  . . .| |  ............................................... .| |  . . .` +   % T W W X.",
"W W L *   # _ | | | }  ...................................................| |  .| | ) +   * U W W X.",
"W W P &   ; _ | |  ... ................................................... . . .| | _ +   % G L L X.",
"E E L *   # _ |  ...............................................................| | ) +   $ Z F F X.",
"E E P *   ; _ | |  ........................................................... . .| ) +   $ Z A S X.",
"E W L *   # _  . ............... . .............................................| | ) +   % G L L X.",
"W W P *   # _ | | ............ . .| ............................................| | ) +   * U E R X.",
"W E K =   # _ |  ............. .| |  ...........................................| } ) +   * Y W E X.",
"I I D &   # _ |  . ........... .| | .......................... ................. .| _ +   & J I P X.",
"F S V $   # _ | |  ........... .| | ........................ .|  . ............. .| ( +   $ Z F S X.",
"A A V & . ; _ |  ............. .| |  .........................| |  ........... .| | _ @ . % C A A X.",
"t y y k l m ] | | ............ .| |  .........................| |  ............. .| ] c l k d t y X.",
". o : ) { { | | | ............ .| | ........................ .|  . .............| | } { { _ @ o X X.",
"    # `  .| | | | ............ .| |  ....................... . .|  .............| | |  . .` X     X.",
"    # ` | | | | |  . ....... ... . . ....................... . . . ......... . .| | | | | ` X     X.",
"    # ` | | | | |  . .|  . . . ..... .|  . ........... .| |  .......| |  .| | | | | | | | ` o     X.",
"    # ` | | | |  .} | | } | } ...... .| | ............ .| |  ..... .| | | | | | | | | | | ` o     X.",
"= = 3 ~ ) ) _ ) ( _ _ _ ) ) ` { .... .| |  ........... .| |  .....[ ` ) ( _ _ ) ) ) ) _ _ ~ < = = X.",
"G G S < + + + + + + + + + + ; !  .| | | | | | | | |  .| | | |  .| ! ; + + + + + + + + + + < F J G X.",
"P U F &                     + Q  .| | | |  .| | | |  .| | |  .|  .Q o                     % K I P X.",
"K K D 4 % $ % % % % $ % $ % < M ' ` ` ` ` ` ` ` ` ` ` ` ` ` ` ` ` m : $ $ $ $ $ % % $ % $ 4 H L L X.",
"D D A Z Z Z Z Z Z Z Z Z Z Z V 9 o X X X X X X X X X X X X X X X + 0 V C Z Z C Z Z Z Z Z Z Z S S S X.",
"A S A D S S S S S S S S S S C 5                                   6 C S S S S S S S S S S S S S S X.",
"A S S S S S S S S S S S S S C 4                                   6 C S S S S S S S S S S S S S S X.",
"X.X.X.X.X.X.X.X.X.X.X.X.X.X.X.X.X.X.X.X.X.X.X.X.X.X.X.X.X.X.X.X.X.X.X.X.X.X.X.X.X.X.X.X.X.X.X.X.X.X."
};
