/* XPM */
static char *result[] = {
/* columns rows colors chars-per-pixel */
"20 15 110 2 ",
"   c #020202",
".  c #040404",
"X  c gray2",
"o  c #070707",
"O  c gray4",
"+  c #0B0B0B",
"@  c gray6",
"#  c #111111",
"$  c #131313",
"%  c gray8",
"&  c #151515",
"*  c #161616",
"=  c gray9",
"-  c gray16",
";  c #2A2A2A",
":  c gray17",
">  c gray21",
",  c #373737",
"<  c #393939",
"1  c #3A3A3A",
"2  c gray23",
"3  c gray25",
"4  c gray27",
"5  c #464646",
"6  c gray28",
"7  c gray29",
"8  c #4C4C4C",
"9  c gray31",
"0  c gray32",
"q  c #535353",
"w  c gray33",
"e  c #555555",
"r  c #585858",
"t  c #6A6A6A",
"y  c #6F6F6F",
"u  c #747474",
"i  c #767676",
"p  c #797979",
"a  c gray48",
"s  c #7B7B7B",
"d  c gray50",
"f  c #808080",
"g  c #848484",
"h  c gray52",
"j  c #898989",
"k  c gray55",
"l  c #8D8D8D",
"z  c #909090",
"x  c gray57",
"c  c #959595",
"v  c gray59",
"b  c #979797",
"n  c #989898",
"m  c #9A9A9A",
"M  c #9B9B9B",
"N  c gray61",
"B  c #9D9D9D",
"V  c gray62",
"C  c #9F9F9F",
"Z  c #A0A0A0",
"A  c gray63",
"S  c gray64",
"D  c #A5A5A5",
"F  c gray65",
"G  c gray66",
"H  c #A9A9A9",
"J  c #AAAAAA",
"K  c gray67",
"L  c #ACACAC",
"P  c gray68",
"I  c #AEAEAE",
"U  c gray70",
"Y  c #B4B4B4",
"T  c #B7B7B7",
"R  c gray72",
"E  c #B9B9B9",
"W  c #BCBCBC",
"Q  c gray74",
"!  c gray",
"~  c gray75",
"^  c #C0C0C0",
"/  c #C1C1C1",
"(  c gray76",
")  c gray77",
"_  c #C5C5C5",
"`  c gray78",
"'  c gray79",
"]  c gray80",
"[  c #CDCDCD",
"{  c #D0D0D0",
"}  c gray82",
"|  c LightGray",
" . c #D5D5D5",
".. c gray85",
"X. c #DADADA",
"o. c gainsboro",
"O. c #DDDDDD",
"+. c gray88",
"@. c gray89",
"#. c #E6E6E6",
"$. c gray91",
"%. c #ECECEC",
"&. c gray93",
"*. c #F3F3F3",
"=. c #F4F4F4",
"-. c #F6F6F6",
";. c #F8F8F8",
":. c #FBFBFB",
">. c #FEFEFE",
",. c None",
/* pixels */
",.,.,.,.,.% # @ @ @ @ @ @ # $ ,.,.,.,.,.",
",.,.,.  : k j p p p p p p h g -   ,.,.,.",
",.,.0 y i ` [ ~ ^ ^ ^ ^ ~ ' ^ u t 9 ,.,.",
",.6 m | ! Q ! Q Y A A U Q Q Q W ] b 4 ,.",
"& M X.( ! Q Q Q G s s F Q Q Q ! ^ } n * ",
"& S @./ Q Q Q Q R P P T Q Q Q Q ^ ..C * ",
"& A -.o.^ ! Q Q Q ! ! Q Q Q ! ~ | $.B * ",
"O w ( =.+. ._ W Q Q Q Q W ) | ..#.E q + ",
"o > d H T @.+.| { { { { { o.+.I V a > o ",
"% c M 5 r L ' _ ~ ! ! ! ! ( J e 3 l x & ",
"& V @.} Y w 1 2 < < < < < , 0 K _  .m * ",
",.8 H ;.&.I A A N N N N N M K +.%.S 7 ,.",
",.,.w f v +.>.:.*.*.*.*.*.=.O.z p 0 ,.,.",
",.,.,.X ; l G D Z Z Z Z Z A k : . ,.,.,.",
",.,.,.,.,.* = = * * * * * * * ,.,.,.,.,."
};
