/* XPM */
static char *result[] = {
/* columns rows colors chars-per-pixel */
"50 50 86 1 ",
"  c #010101",
". c #0A0706",
"X c #0B0B0B",
"o c #141313",
"O c #191716",
"+ c #1D1D1D",
"@ c #231916",
"# c #2A1E1A",
"$ c #2E211D",
"% c #232221",
"& c #2C2C2C",
"* c #362621",
"= c #3A2924",
"- c gray24",
"; c #47332C",
": c #48332C",
"> c #553D34",
", c #593F36",
"< c #5A4037",
"1 c #5D433B",
"2 c #64473E",
"3 c #65483E",
"4 c #4E4E4E",
"5 c #5F4840",
"6 c #5D4F4B",
"7 c #5C514D",
"8 c #515151",
"9 c gray36",
"0 c #654B42",
"q c #6B4C41",
"w c #715145",
"e c #765449",
"r c #79564A",
"t c #7C584C",
"y c #645754",
"u c #615A57",
"i c #665E5B",
"p c #636363",
"a c #6B6563",
"s c #6B6B6B",
"d c #726C6A",
"f c #747474",
"g c #7A7573",
"h c #7D7D7D",
"j c #835C4F",
"k c #835C50",
"l c #885F53",
"z c #876052",
"x c #8B6255",
"c c #906457",
"v c #906458",
"b c #95685B",
"n c #9B6D5F",
"m c #9D6E60",
"M c #9F7061",
"N c #A37364",
"B c #A87766",
"V c #A97867",
"C c #AD7C6B",
"Z c #B17E6C",
"A c #B6816F",
"S c #B68270",
"D c #BA8572",
"F c #BF8975",
"G c #C28B77",
"H c #C58D78",
"J c #C88F7A",
"K c #C9907B",
"L c #848484",
"P c #8B8B8B",
"I c #929292",
"U c gray61",
"Y c #A4A4A4",
"T c #ABABAB",
"R c #B4B4B4",
"E c #B8B7B7",
"W c #BDBDBD",
"Q c #C1C1C1",
"! c #CBCBCB",
"~ c #D5D5D5",
"^ c #DCDCDC",
"/ c gray89",
"( c #EDEDED",
") c #F3F3F3",
"_ c #FDFDFD",
"` c None",
/* pixels */
"KKJKKHBmmmmNDKKKKKKKKKKKKKKKKKKKKKKKKKKKKKKKJKKKK`",
"KKKKKHBmmmmMDKKKKKKKKKKKKKKKKKKKKKKKKKKKKKKKKKKKK`",
"KJKKKHVNNmmNDKKKHHHHHJKKJKKHHHHHHHKKHHHHJKKKKKKKK`",
"KKKKKHFFDNmMDKHZNBNBVDKKKKKSBBBBBAJKFBNZHKKKKKKKK`",
"KKKKKKKKGVmNFKHZmmmmmZKKKKKZnnnmnZHKAmnVHKKKKKKKK`",
"KKKKKKKKGVmNAHGZMNNNMDKHKKKANNNNNAHKDBNVHKKKKKKKK`",
"KKKKKKKKGVmbrq3qwwwwwettttrewwwwwwttbDFGKKKKKKKKK`",
"KKKKKKKKHVml*                       >DKKKKKKKKKKK`",
"HHHHHHGHDVml*                       ,AGGGGHHHGGGH`",
"VVVVVNe02,,0iss9444444484444444449ppy02200eNVVVBV`",
"mmmmml#....%Y)(~RRRRRRRRRRRRRRRRR!//LO... $vmmmmM`",
"NmmNMx#    %T__^WWQWWWWWWWWQQWWWW~()Po    #bMmNmM`",
"CCNq15dhfp9sT/^!WWWWWWWWWWWWWWWWW!~~Up9psfa11qBCC`",
"SZB#.%E)(QREWWQWWWWWWWWWWWWWWWWWWWWQWRRQ//TO.$VSA`",
"ZSN@ +Q__~WWWWWWWWWWWWWWWWWQWWWWWWWWWWQ!((Ro #VZA`",
",,0gLIQ^~QWWWWWWWWWWWYPIPPPYWWWWWWWWWWWQ~~Whhd1,,`",
"..%Q)(!QQWWWWWWWWWWWWPpppppIEWWWWWWWWWWQWQ!//Eo..`",
"  +!_)~WWWWWWWWWWWWWWP9ppp9IEQWWWWWWWWWWWW!((Wo  `",
"  +!_)~EWWWWWWWWWWWWWYIIIIITWWWWWWWWWWWWWWQ((Wo  `",
"  +!_)!WWWWWWWWWWWWWWWEEEEWWWWWWWWWWWWWWWW!((WX  `",
"  +!_)~QWWWWWWWWWWWWWWWWWWWWWWWWWWWWWWWWWW!((WX  `",
"  +Q__/^~!WWWWWWWWWWWWWWWWWWWWWWWWWWWWWQ~~^((Wo  `",
"  +!____)!WWWWWWWWWWWWWWWWWWWWWWWWWWWWW!/((((WX  `",
"  +Q))__)~QWQWQQWWWWWWWWWWWWWWWWWWWWQQQ!()(//RX  `",
"  ophI^__//^~~~QWWWWWWWWWWWWWWWWWQ~~~~~^((~hf9.  `",
"   ..%Q_____))/~EWWWWWWWWWWWWWWWW~((((()((RO..   `",
"   Xo&E((((()((~QQQQWQQQQQQQQQQQW~(((^/^/^T+oX   `",
"  XsPLhffhfPQ)(/^/^~~~~~~~~~~~~~~/((Ehsfsffhhp.  `",
"  +!)^-. ..+U))___))()()(()())())()(Po....-^)Eo  `",
"  +!_/8oOOo&U/^/((/^^^^^^^^^^^^^^^^^L+oooo4^)WX  `",
"  +!_)TPPPPLfsssffssssssssssssssssssfLLLLLU()EX  `",
"  +!_______/8                      Xp^))))(()WX  `",
". %Q_)_____/9...XX...XX.XXX.XX..XXXXs^((()(//Eo..`",
"110dfL^____(ThLLPPLhhhLhhhhhhLhLhhhhR/((((!fss211`",
"MMx@ +W_____)))____)))))_)))))_))_))))))((Ro @bNN`",
"Mmx@ %E____)))))__)()()(((()(((((((((////(TO @bmm`",
"BBNe3qisspsfQ)))___(((((((((((((((((Rs9ppi903wBBB`",
"ZZZDZM#    +U))___)(()((((((()((((((LX    $BAZAZA`",
"SZDZZM$.   %U)()__)(((((((((((((((((PO.   $BASAAA`",
"ZDZZZVltrree7888888884848844884888888eerrrxZAAAAS`",
"GZZBMNZZSASM=                      .:VDZSASSSSSSS`",
"ZZZNmMZDSAZn=                       :BZZAAAASZDZS`",
"ZDZCNNZZSZSZcjtjtttrtlxzjtjtttkzxtrrvVZZAAAAGZZDS`",
"DZDZZZSSSSSSZZZZAAAAZAAAAZZAAZAASVmmmMmBAAASZZDZS`",
"ZZDZZZDZSZSZSSSZAAAAAAASAAAAASAASVmmmnmNSZSZZDZZS`",
"ZZZZZZZZZZZZZZZZCAACACACZCAZCZACZVmmmmmNZZZZZZZZC`",
"mmNNmMMmMMMmMMMMmmmmnmMnnMnMmmmmmmmmmmnmMMmmmmNNm`",
"mmmmmmnMnMnMnnMnmmmmmmmmmmmnmmmmmmmmmmmmmmmmmmmmm`",
"mmMMmmmmmmmmmmmmmmmmmmmmmmmmmmmmmmmmmmmmmmmmmmmmm`",
"``````````````````````````````````````````````````"
};
