/* XPM */
static char *result[] = {
/* columns rows colors chars-per-pixel */
"50 50 60 1 ",
"  c #020202",
". c #0A0706",
"X c #0B0807",
"o c #0B0A0A",
"O c #130D0C",
"+ c #19120F",
"@ c #131313",
"# c #1C1411",
"$ c #1C1C1C",
"% c #251A17",
"& c #241C19",
"* c #2A1E1A",
"= c #2D211D",
"- c #30231E",
"; c #212121",
": c #2A2A2A",
"> c #332520",
", c #3D2C25",
"< c #362D29",
"1 c #333333",
"2 c #3B3B3B",
"3 c #412E28",
"4 c #46322B",
"5 c #4C372F",
"6 c #4C3831",
"7 c #523B33",
"8 c #594037",
"9 c #5C4239",
"0 c #63463D",
"q c #65493E",
"w c #424242",
"e c #6B4C41",
"r c #735146",
"t c #79564A",
"y c #7F594D",
"u c #805A4E",
"i c #855E51",
"p c #885F53",
"a c #8B6355",
"s c #906557",
"d c #916558",
"f c #94695A",
"g c #9B6D5F",
"h c #9D6E60",
"j c #9F7062",
"k c #A47364",
"l c #A87767",
"z c #A77867",
"x c #A97867",
"c c #A97768",
"v c #AC7A69",
"b c #B17E6C",
"n c #B6816F",
"m c #BA8572",
"M c #BF8975",
"N c #C18A76",
"B c #C68E79",
"V c #C88F7A",
"C c #C9907B",
"Z c None",
/* pixels */
"ZZZZZZZZZZZZZZZZZZZZZZZZZZZZZZZZZZZZZZZZZZZZZZZZZZ",
"ZCCVCCMkhhjhlNCCCCCu,,,,,,,,,,7NVCCCCCCCCCCCCCCCCZ",
"ZCCCCCNkhhhglMVCCCC9          #MCCCCCCCVCCCCVCCVCZ",
"ZCCCCCMkhhhglMCVVVV9          #MVVCVCVVVCVCCCCCCCZ",
"ZCCCCCVMbbcgkNCBa44<:::::;:::::440MCBncvmCCCCCCCCZ",
"ZVCCCCCCVNchcNCNe  ;28wwwwww2w2  =nCBvhjnCCCCCCVCZ",
"ZCCVVCCCVNkgcNVNr  :22w2ww2ww21X -mCBvhknCCCCVCCCZ",
"ZCCCCCCCVNcghkxvxff6@@;:::::@@&afhBCVNmmNCCCCCCCCZ",
"ZCCCVVVVVNkghhhkMCV9  @;$;;;. #MVVVVVVVVCCCCCCCCCZ",
"ZBBBBBVBVMkghhgkmVBqoO$$$$$$oO%MBBVBVVVVBBBBBBBBBZ",
"Zvvvcbbcvcjhhhhjkvvkgg>    oighvvvvvvvvvvvvvvvvvvZ",
"Zhhhjggjhhhhhhhhhjhggg-    XihhhhhhhhhhhhhhhhhghhZ",
"Zhhjjjjjjhjjjjhjkhhdiu=.. .oriphjjhhhhhhjjhkhjhjhZ",
"Zvvvcvcvvvvbccvvxvv7  @;;;;;. @kvvkhhhhhkvlvvvvxvZ",
"Znnnnnnnbbmbbbmbnmb7  @;;;$$  +vbbkghhghvnnnnnnnnZ",
"Znnnnnnnbmbmmvddaas4oo@@$$$$o.#iaaitahgkxnnnnnnnnZ",
"Znnnnnnnnnnnni     @;;o     $;$     3kzxvnnnnnnnnZ",
"Znnnnnnnnnnnny     @;;o     $;$     4vnnnnnnnnnnnZ",
"Znnnnnnnnnbai0..o..@;;oo...o$;$o....,yijnnnnnnnnnZ",
"Znnnnnnnnnf. o;;;;;;;;;;;;;;;;;;;;;;@  8bnnnnnnnnZ",
"Znnnnnnnnng. .;;;;;;;;;;;;;;;;;;;;;;@  7vnnnnnnnnZ",
"Znnnnnnv74,@@$;;;;;:11211111111;;;;;$@@=34dnnnnnnZ",
"ZvvvvvvkO .;;;$;;;$1wwwwwwwwww2;;;;$;;;@  rvvvzvvZ",
"ZgghgggdO .$;;;;;;;1wwwwwwwwww2:;;;;;;;o  eggghggZ",
"ZghhgggfO  ;;:2222wwwwwwwwwwwww222211;$@  qggggggZ",
"ZbvnvnvgO .$;:wwwwwwwwwwwwwwwwwwwwww1;;@  tbbbbbbZ",
"ZCCCCCMgO  ;$:wwwwwwwwwwwwwwwwwwwwww1$;@  aCCCCCCZ",
"ZCCCC6%#$$$;;:wwwwwwwwwwwwwwwwwwwwww1;;$$$&%*bCCCZ",
"ZVCCC-  $;;;;:wwwwwwwwwwwwwwwwwwwwww1;;;$;o  gnnmZ",
"ZCCCC-  $;;;;:wwwwwwwwwwwwwwwwwwwwww1;;;;;o .ukjkZ",
"ZCCVC-  $;:2w2wwwwwwwwwwwwwwwwwwwwwww221;;o .ughgZ",
"ZCCCC=  $$:wwwwwwwwwwwwwwwwwwwwwwwwwwww1;$o  dvvvZ",
"ZCCCC-  $;:2wwwww2wwwwwwwwwwwwwwwwwwwww1;;o  kNBBZ",
"ZCCCC-  $;:2wwww1:;1wwwwwwwwwwwwwwwwwww1;;o  vCCCZ",
"Znmmn*  $;:wwwww1;;1wwwwwwwwwwwwwwwwww21;;o .gmmmZ",
"Zkjkk%  $;;wwwww1;;1wwwwwwwwwww122wwwww1;;o  ihkkZ",
"Zgggg%  $;:2wwww2;;1wwwwwwwwww2:;:wwwww1;;o  yhhhZ",
"Zkkkk*  $$:wwwww1;;1wwwwwwwwww2;;:wwwww1;;o .ikkkZ",
"Zntee&oo;;;wwwww1;:1wwwwwwwwwww;;:2wwww1;;@oo8erbZ",
"Zn%  $;;;;:wwwww1;;1wwwwwwwwww2:;:wwwww1;;;;;. OnZ",
"Zb&  @;;;;:2wwww1;;1wwwwwwwwww2;$:wwwww1;;;;$. OnZ",
"Zb&  $;;;;;1111:1111112wwwww111111111:1:;;;;;  OnZ",
"Zn&  $=$;;;;;;;;1221;;1wwwww;;:ww2;;;;;$;;;;;  OnZ",
"Zn&  @;;$;;;;;;;:ww1;;1wwww2:;;ww1;;;;;;$;;;;. OnZ",
"Znptt&oooooooooo$:::;;::::::;;;::;oooooooooooetynZ",
"Znnnn=          o;;;;;;;;;;;;;;;;$          .fnnnZ",
"Zbbnv-.    ..   o;;$;$$;;$;;;;;$$$.  .    . ofvnbZ",
"Zjgkkpuuuuuuuuuu7 o..o...... ....&yyuuuuuuyyyhjjjZ",
"Zhhhghhhhhhhghhg0                &hhhhhhhhhhghhhgZ",
"Zhhhhhhhhghhhhhhq .   .    .   ..*hgghhhghhhhhhhhZ"
};
