/* XPM */
static char *result[] = {
/* columns rows colors chars-per-pixel */
"50 50 65 1 ",
"  c #000000",
". c #090706",
"X c #0B0807",
"o c #0C0C0C",
"O c #120D0B",
"+ c #141414",
"@ c #1C1512",
"# c #1C1C1C",
"$ c #241A16",
"% c #2C1F1B",
"& c #2E211C",
"* c #31231E",
"= c #212121",
"- c #2D2624",
"; c #2F2826",
": c #2C2C2C",
"> c #342520",
", c #302927",
"< c #392923",
"1 c #3E2E28",
"2 c #323232",
"3 c #3B3B3B",
"4 c #40302C",
"5 c #48342C",
"6 c #463530",
"7 c #553C34",
"8 c #593E37",
"9 c #5E433A",
"0 c #62453C",
"q c #66483E",
"w c #684A3F",
"e c #434343",
"r c #4B4B4B",
"t c #525252",
"y c #5B5B5B",
"u c #6A4B40",
"i c #735246",
"p c #616161",
"a c #686868",
"s c #757575",
"d c #7A7A7A",
"f c #8D6456",
"g c #916659",
"h c #95685B",
"j c #9B6D5F",
"k c #9D6E60",
"l c #9F7062",
"z c #A27363",
"x c #A87766",
"c c #A97867",
"v c #AD7A69",
"b c #B17D6C",
"n c #B5816F",
"m c #B78270",
"M c #BA8572",
"N c #BF8874",
"B c #C28B77",
"V c #C68E79",
"C c #C88F7A",
"Z c #C9907B",
"A c #979797",
"S c gray65",
"D c #AAAAAA",
"F c gray74",
"G c None",
/* pixels */
"GZZZZZVvkkkkkMZZZZZZZZZZZZZZZZZZZZZZCZZZZZZZZZZZZZ",
"GZZZZZVvkkkkkMZZZZZZZZZZZZZZZZZZZZZZZZCZZZZZZZZZZZ",
"GZZZZZVvkkkkkMVZZZZZCCZCZZZZCCZZCZZZZCZCZZZZZZZZZZ",
"GZZZZZCMMbcklMVVNvvvvbMZZZCZBbvbvvMVZBbbnBZZZZZZZZ",
"GZZZZZZCZVvklmZCmkkkkkbCZZZZmzjjkkvBZMzkcBZZZZZZZZ",
"GZZZZZZZZVvklmZCbkkklkbCZZZZmzzjkkvVZMzkxBZZZZZZZZ",
"GZZZZZZZVVvkkcvbbbMmmmBCZZZZBmbmmnNVZVMnMBZZZZZZZZ",
"GZCZZZZZZVvkku$$%-&%&&&&&*&&&&&&&&&&&5BCCCZZZZZZZZ",
"GCCCCCCCCVvkk8                       $BVCCCCCCCCZC",
"Gbvbbbbbbvzkk8                       @vbbbbvbbbbbb",
"Gllklkku%%%%%;223eererrerrererrere3#+#%%%%%<gkklzk",
"Gkkkkkk7     #3erpppppppppppppppppy==#     Ohkkjjj",
"Gvcccxx9    .#3erpppppppppppppppppy==#     Ojxxccc",
"Gnnni%&;223rrtyyypppppppppppppppppyttrrre###&*>cnn",
"Gnnn0  #eerpppppppppppppppppppppppppppppy-=#  oxmb",
"Gnnm9  #eerpppppppppppppppppppppppppppppy==#  oznm",
"G7&&;22eyyppppppppppppsDSSSSAppppppppppppttr=##-*>",
"G>  =eetppppppppppppppdFFFFFDppppppppppppppy==#  X",
"G>  #eerppppppppppppppdFFFFFDppppppppppppppy===  .",
"G>  =eetppppppppppppppaddddddppppppppppppppy:==  X",
"G>  =eetpppppppppppppppppppppppppppppppppppy:==  .",
"G>  #eerpppppppppppppppppppppppppppppppppppy=#=  .",
"G%  =eerrrtpppppppppppppppppppppppppppppy322===  .",
"G%  =3eeeerpppppppppppppppppppppppppppppy======  .",
"G*  =eeeeerpppppppppppppppppppppppppppppy======. .",
"G<  o##23ertrr3erpppppppppppppppppy33e3e3===+oo  X",
"G<     #eeeee2==2pppppppppppppppppy========#     X",
"G<     #eeeee2==3pppppppppppppppppy=========     .",
"G<  #22=o+ooo#==:ere2222222222:22::==#.oXXoo#++  .",
"G<  #ee=     o==:ee3==#=#=#==========#      #==  .",
"G<  =ee=     +#=:ee2============#====#      #=#. .",
"G<  =ee3::2::#o.o+++.o..ooXoXoXXo.oXoo++#++#==#  X",
"G<  =ee3eeeee=                       .#=======#  X",
"G>  #eeeeeeee=                       .========#. X",
"Gi001##:eeeee2+++::=++++++++++++++++++=====#oo+800",
"Gjjj7  #ee3ee2==:ee3=======================#. ofjj",
"Gzxz7  #eeeee2==:3e2=====#=======#=========#  ogzz",
"Gbbbgwu6######==:ee3=================#oooOo@0uicbb",
"GnmmmMmq     o==:ee3==========#======#     Oxmnmmm",
"GMmbbbb0     o==-ee3=================#     Oxnnnnn",
"Gnnnxllfuwuuw4Oo+###oooo+ooo+ooo+oooo@0uuuuivbMbnm",
"GnnnljkxnnMbb0                       @vMmmnnbMbMmm",
"GnnnclknnnnMb0                       @vbbmmnMbMbnb",
"GnnnnnnnnmnbMhqqwwwqqqqqqqqqqq00qq0890kzcbmmbMbMnn",
"GnnnnmmnnnmnbnmmnmmnmmnmnnnmnmmnnnvlkkkkzbnnMbMbnn",
"GnnnnnnnnnnnmnnnnnnnnnnnnnnnnnnnnnvlkkkkzvmnbMbMnn",
"Gllzlllllllllllzllllllllllllzzzzzzkkkkkkkzlzzzzzzz",
"Gljlkklkjlkklkkkkklljljjlljlkkjkkkkkkkkkkkkkkkkkkk",
"Glljkkkkkkkkkkkkkkkkkkkkkkkkkkkkkkkkkkkkkkkkkkkkkk",
"GGGGGGGGGGGGGGGGGGGGGGGGGGGGGGGGGGGGGGGGGGGGGGGGGG"
};
