/* XPM */
static char *result[] = {
/* columns rows colors chars-per-pixel */
"20 15 77 1 ",
"  c black",
". c #010101",
"X c #020202",
"o c gray1",
"O c #040404",
"+ c #060606",
"@ c #070707",
"# c gray3",
"$ c #090909",
"% c #0B0B0B",
"& c #0C0C0C",
"* c gray6",
"= c #111111",
"- c #131313",
"; c #151515",
": c #161616",
"> c gray9",
", c #181818",
"< c gray10",
"1 c #1B1B1B",
"2 c gray11",
"3 c #1D1D1D",
"4 c #1E1E1E",
"5 c gray12",
"6 c #202020",
"7 c #222222",
"8 c #232323",
"9 c gray14",
"0 c gray15",
"q c #272727",
"w c #282828",
"e c gray16",
"r c gray17",
"t c #2C2C2C",
"y c #2D2D2D",
"u c gray18",
"i c #2F2F2F",
"p c gray19",
"a c #323232",
"s c gray20",
"d c #343434",
"f c gray21",
"g c #3A3A3A",
"h c #3C3C3C",
"j c #3E3E3E",
"k c #3F3F3F",
"l c #414141",
"z c gray26",
"x c #434343",
"c c #444444",
"v c gray27",
"b c gray28",
"n c #484848",
"m c #4E4E4E",
"M c gray31",
"N c #505050",
"B c #515151",
"V c gray32",
"C c #535353",
"Z c #555555",
"A c #585858",
"S c gray35",
"D c gray37",
"F c #606060",
"G c gray38",
"H c #626262",
"J c gray39",
"K c #646464",
"L c #686868",
"P c DimGray",
"I c #6C6C6C",
"U c #777777",
"Y c #797979",
"T c #7B7B7B",
"R c #AEAEAE",
"E c #AFAFAF",
"W c None",
/* pixels */
"WWWWW..XXXXXX..WWWWW",
"WWW +ehxzzzzxf;X WWW",
"WW-8amDJHGGHJSkp,$WW",
"W*yCHHGGLTTPGGHGx4#W",
".tBGGGGFUREYFGGGGl:.",
".yVGGGGGKIIKGGGGGz>.",
".unVGHGGGFFGGGHGxr,.",
".:anBvAHHHHHJSxzr,& ",
" &6iy8bZMMMMNz6,>=+ ",
".yq$&1au455554<#O->.",
".ykgs%@@OOOOOO@<35>.",
"W=rcj208::::::,67:$W",
"WW;778gd7777776-=%WW",
"WWW o:w9>,,,,,;o WWW",
"WWWWW.X........WWWWW"
};
