/* XPM */
static char *result[] = {
/* columns rows colors chars-per-pixel */
"50 50 107 2 ",
"   c #8F5B3C",
".  c #905B3F",
"X  c #8D5F41",
"o  c #915E43",
"O  c #8E6245",
"+  c #8E674C",
"@  c #8E694E",
"#  c #946246",
"$  c #95624B",
"%  c #9C664C",
"&  c #946B4D",
"*  c #9A6949",
"=  c #996654",
"-  c #956C51",
";  c #9C6C54",
":  c #9C6D5F",
">  c #947055",
",  c #9E7152",
"<  c #93765D",
"1  c #98755A",
"2  c #96795F",
"3  c #9F7A5E",
"4  c #A46B4C",
"5  c #A86C4C",
"6  c #A36D52",
"7  c #A86D52",
"8  c #A16E5C",
"9  c #A27254",
"0  c #AB7155",
"q  c #AC745D",
"w  c #B0765B",
"e  c #B67A5D",
"r  c #9D6E60",
"t  c #8C7E67",
"y  c #9F7062",
"u  c #927C63",
"i  c #9B7D63",
"p  c #907F6A",
"a  c #A27264",
"s  c #A97766",
"d  c #A97867",
"f  c #AC7A69",
"g  c #B27B64",
"h  c #B87C60",
"j  c #B17E6C",
"k  c #8F806A",
"l  c #8F8672",
"z  c #8F8875",
"x  c #8F8C79",
"c  c #908976",
"v  c #928E7B",
"b  c #91917E",
"n  c #BD8167",
"m  c #B6816F",
"M  c #BA826C",
"N  c #B78270",
"B  c #BB8673",
"V  c #BF8874",
"C  c #C0856D",
"Z  c #C38B76",
"A  c #C68E79",
"S  c #C88F7A",
"D  c #C9907B",
"F  c #919483",
"G  c #929A8C",
"H  c #93A094",
"J  c #93A69C",
"K  c #98A59A",
"L  c #93A89E",
"P  c #94ABA3",
"I  c #94B3AD",
"U  c #95B7B2",
"Y  c #95B9B5",
"T  c #97BEBB",
"R  c #B4BFB9",
"E  c #96C0BE",
"W  c #9FC1BF",
"Q  c #97C3C3",
"!  c #99C2C1",
"~  c #97C7C8",
"^  c #98C9CB",
"/  c #98CED1",
"(  c #9AD0D4",
")  c #9AD6DB",
"_  c #9AD9DF",
"`  c #A5D7DC",
"'  c #B2D9DC",
"]  c #9BDAE2",
"[  c #9BDFE8",
"{  c #9CE3ED",
"}  c #9DE7F3",
"|  c #9DE9F6",
" . c #9EEEFC",
".. c #9EF0FF",
"X. c #A5E1EA",
"o. c #A5EFFC",
"O. c #A3F0FF",
"+. c #ABF1FF",
"@. c #B4F3FF",
"#. c #BDF3FF",
"$. c #C3F4FF",
"%. c #CEF5FF",
"&. c #D2F5FF",
"*. c #DBF7FF",
"=. c #E3F7FF",
"-. c #EAF8FF",
";. c None",
/* pixels */
";.D D D D S S d r r r r r N S D D D D S D D D D D D D D D D D D D D D D D D D D D D D S D S D D D D ",
";.D D S D D D d r r r r y N D D D D D D D D D D D D D D D S D D D D D D D D D D D D D D D D D D D S ",
";.D D D D D S d r r r r y N S D D S D D D D D D D D D D D D D S D D D D D S D D S S D D D D D D D D ",
";.D D D D D S V B j a r y N S S V j f f f f B D S D D D V j f f f f N S D Z j f j S D D D S D D D D ",
";.D D D D D D S S S f r r N S S j y r r r a j D D D D D M a : : r r f Z D B a r d Z D D D D D D D S ",
";.D S D S D D D S S f r a N S S N r r r r : j D D D D D m a y 1 r r f Z D B y r s Z D D D D S D D D ",
";.D D D D D D S S S f r r d f j j N N M m M V D D D S D A j j B N N V S D Z N N N S D D D D D D D D ",
";.D D S D D D D S A f r r r r y j S S S S S S S D D S S S S S S S S S D D D S S D D D S D D D D D D ",
";.S S S S S S S S S d r $ o = = j S S S S S S S S S A A S S S S S S S S S S S S S S S D S S S S S D ",
";.j f j j j j j j f a o R / I F = j j j j j j j j j j j j j j j j j j j j j j j f j j j j j j j f f ",
";.r y r r y r r r r r $ `  . .{ & r r r r r r r a y y r y r r y r y y r r r r r y r r r r r r r r y ",
";.r r r r r r r r r : : # p z & = r r r r r r r r r r r r r r r r r r r r r r r r y r r r r r : r y ",
";.d d d d d d d d d d d d s d d d d d d f d d d d j d d s f f d d d a r r r r r y d d d d d d d d d ",
";.m m m m m m m m m m m m m M j j N j N j N N m j j j j j j j j N N d y r r r : a j m m m m m m N N ",
";.N m m m m m m m N m m m j j g 0 6 ; 2 u u i u 1 6 7 q j j B j N N d y r r y r a m m m N m m m N N ",
";.N m m m m m m m m m m q * 2 G E ] }  . . . . . .} ) Y F > 4 d f d s y r y a s d j m m N j N m m m ",
";.N N N N m m m N m w & H _ o.....&.$.....................} ^ x # = y : : a j N N j N N m m m m j N ",
";.j M j m m m m m 6 b X.%.=.=.#...#.+......................... .) l # : r s j N N N j N N m m N N N ",
";.N N N m m m m 6 K o.*.-.-.*.+.....O............................. .Q @ $ a f f j N N N m m m m N N ",
";.N N j N m M s F  .#.-.=.&.+.........................................{ x o r r a j j N m N m m j m ",
";.N m j N N m - { ..O.@.+............................................... .L . : a j N N m N N N N N ",
";.j f j f d 6 P ............................................................L o a f f f f f f f j f ",
";.r r r r r X ] ............................................................ .t = : r r r r r r r r ",
";.r : r r r X } ..............................................................( o : : : r : : : : r ",
";.d d d f f $ { ..............................................................} o f f f f f f f d d ",
";.D D D D D e I ..............................................................( 4 D S D S D D D D D ",
";.D D D D D Z u  ...........................................................} u C S S D D D D D D S ",
";.D D D D D S 4 Y ........................................................{ u e S S S A Z B B C Z B ",
";.D D D D D D Z * ^ O...................................................[ u h D S S S Z s y a y y a ",
";.D D D D S D D A , Q ...................................... . ._ E P G % C D D S S S Z y r r : r r ",
";.D D D D D D Z B m # G { ................................{ L 2 4 w g n S D S D D D S Z f d d d d s ",
";.D D D D D S f a a a $ O b T ] } }  . .............} ^ b * e S D D D D D D D D D S D S A Z Z Z Z Z ",
";.D D D D D D d r r r r r j h 0 8 8 k i v b b F b u - 5 n S D D D S D D D D D D D D D D D S D D D D ",
";.B V V V B B d r r r r r f B B B B Z M M e s g h N B V B B V B V B g 0 q M V V V V B B V V V V V V ",
";.a a a a a a y r r r r r y s a a a a a a a a a a a a s a a a a ; - K ! I k $ % 8 a a a a a a a a a ",
";.r r r r r r r r r r r r r : : r r r r : r r r r : : r : : : : X ' =.$.....] I x +   : r r r r r : ",
";.a a a a a a a a a a a a a a a a a a d a a s a a a s a a a a   ! -.&.O........... .Q O a a a a a a ",
";.j j j f m j f m j j j j j j j j j j j j j j j j j j j j j q x o.@.+.................F s j j j j j ",
";.N m M N N N N N N m M m N N N B j N B N N N N N N N N N N 7 U +.O.................o.c j N M M m N ",
";.N m m N f N N m m m m N m j j j j j j j j j N N j j j j j q F O. .................^ % j N N j m m ",
";.m m m d y y m m N j N m f a a a a y a a y d j N f a a a a a O ] .... .........} Y # j M m m m N m ",
";.m m m y r r d m m m m j d r r r r r r r r d N N d : : r r : ; @ G Q [ { ) Y b & 4 j m m m m N m m ",
";.N m m d y r d m m m N j d r y y y y y r r d N N f r y r r a d j q % o   # 6 d j N m m N j m m m m ",
";.N m m m m m m m N m m N j j j m f f f j j j N N j j j j j f f N M f a r : y y s j m N N N N M m m ",
";.m m m N N N m m m m N N N N N N N N m N N N N M N N N N N N m N m d y r r r r y m N N N N m m m m ",
";.m m m m m m m m m m m j N m m m N m m m m m N m m m m m m m m m m f y r r r r y f N N j N m m m m ",
";.y y y y y y y y y y y a y a a y i y y y y y y y y y y y y a a a a y r r r r r y y y y y y y y a y ",
";.r r y r r r r r y r r r r r : r r r r r r r r y r r r r r : r r r r r r r r r y y r r y r r r r r ",
";.r r r r r r r r r r r r r r r r r r r r r r r r r r r r r r r r r r r r r r r r r r r r r r r r r ",
";.;.;.;.;.;.;.;.;.;.;.;.;.;.;.;.;.;.;.;.;.;.;.;.;.;.;.;.;.;.;.;.;.;.;.;.;.;.;.;.;.;.;.;.;.;.;.;.;.;."
};
